<?xml version="1.0" standalone="no"?>
<!DOCTYPE svg PUBLIC "-//W3C//DTD SVG 20010904//EN"
 "http://www.w3.org/TR/2001/REC-SVG-20010904/DTD/svg10.dtd">
<svg version="1.0" xmlns="http://www.w3.org/2000/svg"
 width="300.000000pt" height="300.000000pt" viewBox="0 0 300.000000 300.000000"
 preserveAspectRatio="xMidYMid meet">
<metadata>
Created by potrace 1.10, written by Peter Selinger 2001-2011
</metadata>
<g transform="translate(0.000000,300.000000) scale(0.100000,-0.100000)"
fill="#000000" stroke="none">
<path d="M1222 2968 c9 -6 3 -8 -19 -6 -18 3 -30 2 -28 -2 2 -3 -29 -14 -68
-24 -40 -10 -103 -31 -140 -47 -38 -16 -74 -26 -80 -22 -6 4 -7 1 -2 -7 6 -10
4 -12 -9 -7 -11 4 -15 3 -11 -4 4 -6 -1 -9 -11 -7 -12 2 -18 -2 -16 -11 2 -8
-3 -11 -12 -8 -8 3 -17 -1 -20 -10 -4 -9 -13 -13 -22 -9 -8 3 -12 2 -9 -4 6
-9 2 -11 -35 -14 -8 -1 -14 -8 -12 -14 1 -8 -5 -12 -15 -10 -11 2 -17 -2 -15
-11 2 -9 -3 -11 -13 -7 -9 3 -13 2 -10 -4 5 -8 -27 -32 -36 -27 -2 1 -3 0 -2
-1 1 -2 -24 -24 -55 -50 -31 -25 -71 -59 -89 -76 -18 -17 -38 -31 -44 -31 -7
0 -13 -8 -15 -18 -1 -10 -8 -25 -15 -33 -10 -12 -14 -12 -20 -2 -7 10 -9 10
-10 -2 -1 -8 -2 -20 -3 -25 0 -6 -14 -26 -29 -45 -24 -29 -28 -31 -24 -12 7
31 0 28 -19 -10 -15 -28 -15 -31 -2 -20 12 9 17 10 20 1 2 -6 32 25 65 70 34
45 65 81 68 81 3 -1 37 28 74 63 162 153 354 256 609 327 115 33 138 44 91 46
-22 1 -27 -2 -17 -8z"/>
<path d="M1666 2972 c-2 -4 31 -13 75 -20 165 -26 392 -111 520 -193 33 -22
65 -36 71 -33 6 4 8 3 5 -3 -9 -14 19 -37 34 -27 7 4 9 3 6 -3 -9 -14 19 -37
34 -27 8 5 9 3 4 -6 -6 -9 -4 -11 5 -5 8 5 11 4 6 -3 -4 -6 5 -19 19 -28 40
-26 193 -201 242 -277 170 -261 253 -560 240 -867 -4 -102 -3 -115 5 -70 13
73 3 304 -17 410 -21 108 -83 298 -125 380 -57 114 -157 255 -250 354 -49 52
-90 94 -90 91 0 -2 -12 8 -27 23 -15 15 -27 31 -25 35 1 5 -2 6 -7 3 -5 -4
-12 -2 -16 4 -4 6 -10 8 -15 5 -4 -3 -11 2 -14 11 -4 9 -9 14 -13 11 -3 -4
-18 2 -32 12 -14 10 -49 30 -78 46 -29 15 -50 32 -46 38 3 6 1 7 -6 3 -6 -4
-21 -4 -32 -1 -17 6 -19 9 -8 17 11 8 11 9 -2 5 -9 -3 -59 12 -112 33 -53 22
-142 48 -199 60 -57 12 -113 23 -125 26 -12 2 -24 1 -27 -4z"/>
<path d="M1276 2949 c-244 -36 -557 -186 -735 -354 -37 -36 -71 -62 -75 -60
-3 3 -4 2 -1 -1 2 -4 -14 -27 -36 -53 -57 -64 -153 -210 -199 -301 -58 -116
-105 -261 -130 -403 -20 -113 -22 -151 -17 -315 4 -152 10 -207 30 -292 41
-168 101 -320 188 -472 49 -85 66 -104 66 -73 0 8 -7 15 -14 15 -8 0 -12 4 -9
9 3 5 -1 14 -9 21 -8 7 -15 19 -15 26 0 8 -3 14 -8 14 -8 0 -26 34 -67 125
-56 127 -77 181 -78 208 -1 9 -4 17 -7 17 -6 0 -31 104 -35 141 -1 9 -7 45
-12 80 -12 69 -12 68 -12 264 0 128 15 253 46 370 30 117 44 135 83 108 18
-13 21 -21 15 -51 -4 -20 -15 -47 -26 -60 -10 -14 -19 -35 -19 -48 0 -13 -4
-24 -8 -24 -16 0 -34 -52 -22 -64 18 -18 11 -44 -20 -76 l-31 -31 24 -28 c16
-20 23 -39 22 -65 -1 -20 2 -36 6 -36 5 0 9 20 9 44 0 24 2 51 5 58 4 9 -2 14
-17 13 -13 0 -23 4 -23 10 0 5 7 9 15 7 13 -3 13 -2 0 7 -12 9 -11 11 7 11 17
0 23 8 28 41 6 33 4 43 -12 54 -17 14 -16 16 9 19 9 1 92 221 110 291 2 6 5
12 9 15 3 3 20 31 38 63 23 43 27 56 15 49 -16 -9 -34 -3 -73 25 -2 1 21 40
51 85 30 46 58 90 61 98 3 8 6 -140 6 -330 1 -495 18 -676 82 -885 53 -174
140 -346 244 -482 70 -93 251 -285 335 -357 80 -68 389 -286 406 -286 7 0 165
98 224 140 16 10 37 16 55 13 17 -2 46 3 65 12 23 10 26 14 10 10 -48 -11 -95
-18 -90 -12 3 3 23 19 45 36 22 18 56 44 74 59 65 51 263 247 326 322 89 108
149 199 210 325 141 287 174 499 175 1108 0 335 0 337 20 325 11 -7 20 -18 20
-24 0 -6 11 -23 25 -38 13 -14 22 -26 19 -26 -3 0 6 -12 20 -26 13 -15 22 -32
20 -38 -3 -7 7 -23 20 -35 14 -13 23 -28 20 -32 -3 -5 -1 -9 5 -9 5 0 12 -13
16 -30 4 -16 11 -30 16 -30 5 0 9 -7 9 -15 0 -8 4 -23 9 -33 6 -9 18 -44 27
-77 9 -33 21 -64 26 -69 4 -6 8 -21 8 -34 0 -13 4 -31 9 -40 5 -9 12 -39 15
-65 4 -26 11 -69 15 -95 5 -26 9 -73 10 -104 1 -58 -4 -64 -40 -60 -4 1 -4 -9
-1 -21 5 -18 7 -19 10 -4 4 19 17 23 27 7 18 -29 24 0 19 93 -30 551 -365
1029 -858 1226 -174 69 -369 111 -520 111 -79 0 -45 -12 46 -17 97 -4 243 -33
328 -63 19 -7 42 -15 50 -18 74 -24 147 -54 184 -76 38 -22 43 -29 38 -53 l-5
-28 21 25 c12 14 21 19 22 13 0 -7 7 -13 15 -13 22 0 85 -43 85 -58 0 -7 -7
-15 -15 -18 -8 -4 -15 -12 -15 -20 0 -19 -15 -18 -46 3 -20 13 -24 22 -19 42
6 25 6 25 -9 6 -8 -11 -18 -17 -21 -13 -4 4 0 14 9 23 9 9 16 22 16 28 0 7
-10 0 -21 -16 -22 -29 -39 -28 -39 4 0 11 -5 17 -10 14 -6 -4 -8 -10 -5 -15 8
-13 -15 -6 -70 20 -27 13 -53 22 -57 22 -9 -2 -12 14 -8 38 1 8 -7 4 -19 -10
l-21 -25 10 29 c14 37 4 47 -11 12 -14 -30 -33 -35 -24 -6 4 11 2 20 -4 20 -6
0 -11 -4 -11 -10 0 -18 -49 -10 -63 11 -8 11 -18 16 -21 11 -10 -16 -39 -7
-47 14 -4 10 -8 14 -8 7 -1 -15 -72 -8 -82 8 -4 7 -9 4 -13 -6 -9 -24 -8 -25
16 -25 51 0 261 -66 365 -115 131 -62 373 -235 329 -235 -3 0 -12 7 -21 16
-13 13 -18 14 -31 3 -24 -20 2 -29 111 -36 52 -3 95 -8 95 -9 0 -2 -17 -20
-37 -39 -46 -43 -53 -43 -261 9 -246 62 -461 138 -674 238 l-106 50 -64 -35
c-153 -84 -425 -183 -676 -246 -234 -58 -239 -59 -284 -16 -21 19 -38 37 -38
39 0 2 30 6 68 9 81 7 145 16 150 22 2 2 1 8 -3 14 -4 7 -15 5 -33 -6 -48 -30
-9 5 90 80 100 75 191 130 271 163 31 12 47 25 47 37 0 9 -5 17 -12 17 -6 0
-9 -3 -5 -6 3 -4 -16 -18 -44 -31 -41 -21 -52 -23 -65 -12 -13 11 -14 9 -9
-14 8 -29 -2 -35 -25 -14 -12 10 -12 9 -1 -5 8 -11 9 -18 3 -18 -6 0 -14 5
-18 11 -5 8 -10 7 -16 -4 -5 -9 -30 -31 -56 -49 -26 -17 -50 -36 -53 -41 -3
-4 -13 -1 -22 7 -14 15 -16 14 -14 -10 1 -15 -4 -29 -10 -31 -19 -7 -29 27
-12 38 11 7 11 9 -3 9 -14 0 -18 -8 -18 -35 0 -39 -24 -60 -53 -44 -12 7 -17
6 -17 -1 0 -6 -4 -8 -10 -5 -5 3 -10 2 -10 -4 0 -5 5 -13 10 -16 6 -3 10 -1
10 6 0 10 3 10 12 1 9 -9 9 -15 1 -23 -8 -8 -19 -6 -39 7 -21 14 -26 15 -17 3
10 -12 7 -15 -18 -17 -16 -1 -29 0 -29 3 0 10 34 44 40 40 4 -3 16 5 26 17 12
14 14 19 4 13 -8 -4 3 11 25 34 21 22 45 41 52 41 7 0 13 5 13 11 0 5 4 8 9 4
5 -3 12 3 16 12 3 10 39 38 81 61 58 35 78 41 88 33 10 -9 16 -9 21 -1 4 6 1
9 -6 8 -6 -2 -14 3 -16 10 -3 6 0 12 6 12 6 0 45 16 86 35 119 55 252 97 340
109 22 2 62 10 89 16 26 6 57 8 67 5 11 -4 19 -2 19 4 0 13 -68 13 -154 0z
m335 -328 c217 -103 512 -203 738 -250 50 -11 95 -22 100 -26 18 -11 14 -646
-4 -790 -20 -149 -64 -323 -110 -429 -19 -44 -33 -81 -31 -83 6 -6 63 131 90
217 61 193 89 478 84 872 -1 120 1 220 5 224 4 4 8 -132 9 -302 l3 -309 2 299
c3 301 6 326 40 326 12 0 14 -19 9 -122 -4 -102 -5 -253 -3 -388 2 -112 -28
-420 -43 -450 -4 -8 -11 -36 -14 -62 -7 -51 -61 -224 -75 -242 -5 -6 -12 -25
-15 -43 -4 -17 -14 -37 -22 -44 -8 -6 -14 -17 -14 -24 0 -43 -154 -267 -281
-410 -143 -161 -255 -255 -469 -394 l-125 -81 -6 27 c-4 16 -7 22 -8 16 -2
-25 -31 -11 -172 83 -136 91 -250 181 -293 228 -10 12 -49 55 -86 96 -37 41
-82 93 -101 115 -19 22 -37 42 -41 43 -5 2 -8 8 -8 14 0 5 -20 37 -45 69 -25
33 -45 62 -45 64 0 3 -11 22 -23 43 -30 47 -101 205 -127 280 -48 144 -79 324
-85 497 -11 344 -15 685 -8 685 19 -1 36 -20 43 -51 l8 -34 1 39 c1 22 3 37 5
35 3 -2 8 -160 11 -349 4 -190 9 -347 11 -349 2 -2 4 148 4 335 0 186 4 345 8
352 5 6 19 12 33 11 54 -2 326 71 505 136 107 39 278 113 358 156 28 15 54 28
57 28 3 1 62 -25 130 -58z m729 34 c0 -3 -7 -17 -16 -30 -23 -36 -39 -31 -17
5 15 27 33 40 33 25z m25 -25 c4 -6 11 -8 16 -5 5 4 9 1 9 -5 0 -6 4 -9 9 -5
12 7 41 -22 41 -41 0 -8 4 -13 9 -10 5 4 7 -4 5 -16 -2 -13 -2 -17 2 -10 8 17
21 15 42 -6 42 -43 43 -48 12 -50 -15 -1 -35 5 -44 14 -10 9 -24 13 -36 9 -25
-8 -36 15 -20 44 10 20 9 20 -15 9 -32 -14 -38 -8 -25 28 l10 29 -24 -29 c-14
-16 -26 -24 -30 -18 -3 6 -2 13 4 17 5 3 10 17 10 31 0 24 14 32 25 14z
m-2036 -415 c6 -3 11 -15 11 -27 0 -14 -5 -18 -16 -14 -11 4 -14 1 -12 -12 1
-10 -5 -31 -16 -46 -10 -16 -12 -25 -5 -21 8 5 10 4 5 -3 -4 -7 -17 -12 -29
-12 -18 0 -19 -2 -7 -10 13 -8 13 -11 1 -19 -7 -5 -10 -14 -6 -21 6 -9 2 -9
-16 0 -33 17 -32 16 -19 39 8 17 8 21 -4 21 -11 0 -9 11 11 46 14 25 32 48 40
51 9 4 10 9 3 18 -5 6 -7 14 -5 17 7 7 50 2 64 -7z"/>
<path d="M1405 2544 c-181 -87 -506 -199 -715 -246 l-105 -23 -1 -70 c-8 -382
-4 -620 12 -720 38 -247 98 -416 210 -586 24 -37 44 -73 44 -78 0 -6 5 -11 10
-11 6 0 10 -6 10 -14 0 -8 10 -22 22 -30 12 -9 19 -16 14 -16 -5 0 -3 -7 4
-15 7 -8 9 -15 4 -15 -24 0 -163 192 -233 321 -23 41 -41 70 -41 65 0 -20 102
-198 160 -280 70 -98 215 -249 308 -320 71 -54 96 -58 31 -5 -71 58 -92 79
-86 86 6 6 117 -92 125 -110 2 -4 9 -4 15 0 8 4 7 1 -1 -9 -11 -14 -2 -22 65
-65 165 -105 258 -142 258 -103 0 8 32 34 70 58 39 23 79 48 90 55 38 23 100
72 188 147 117 99 114 97 129 82 14 -14 8 -20 -137 -141 -84 -69 -308 -221
-327 -221 -8 0 -19 -5 -25 -11 -17 -17 -48 -5 -168 65 -172 102 -250 161 -385
296 -133 133 -202 224 -281 373 -56 106 -64 111 -16 11 48 -103 122 -223 179
-290 83 -97 186 -204 197 -204 5 0 13 -5 17 -12 5 -7 2 -9 -7 -4 -8 4 16 -22
53 -57 69 -67 149 -125 301 -216 l87 -53 99 61 c54 34 98 68 98 76 0 19 -2 19
-32 -1 -14 -9 -22 -21 -18 -27 4 -6 0 -8 -10 -4 -11 4 -17 1 -17 -9 0 -8 -4
-12 -10 -9 -5 3 -18 1 -27 -4 -13 -8 -14 -10 -4 -11 11 0 9 -4 -5 -15 -26 -20
-40 -19 -23 2 12 14 9 14 -18 -2 -19 -11 -28 -22 -22 -26 8 -5 8 -8 0 -13 -10
-6 -76 37 -106 68 -17 19 -67 51 -140 91 -95 52 -136 81 -129 88 4 4 20 -5 37
-19 16 -13 58 -38 93 -54 35 -17 102 -55 149 -86 l86 -55 106 68 c258 166 435
322 570 503 65 87 152 230 140 230 -3 0 -21 -28 -40 -62 -45 -81 -184 -268
-198 -268 -4 0 -10 7 -13 16 -4 10 15 43 56 95 53 66 170 255 174 281 1 4 3
10 4 13 1 3 3 8 5 13 4 16 17 48 25 63 10 19 49 157 55 196 3 15 9 53 15 83 5
30 11 82 14 115 7 78 8 526 1 533 -3 3 -5 -71 -5 -164 0 -564 -95 -866 -374
-1193 -37 -43 -95 -103 -129 -133 -150 -132 -386 -294 -413 -284 -7 3 -59 35
-116 72 -423 274 -655 604 -734 1044 -27 153 -38 800 -14 800 6 0 10 -109 10
-283 0 -531 58 -778 249 -1067 64 -97 221 -264 331 -353 87 -70 263 -187 282
-187 19 0 225 138 311 209 161 131 327 332 409 495 48 96 96 237 124 369 25
114 27 143 31 470 3 191 9 347 14 347 4 0 10 -17 12 -37 3 -31 4 -29 5 15 2
45 0 52 -17 52 -32 0 -277 66 -401 108 -123 42 -330 124 -420 166 -30 14 -59
25 -65 25 -5 0 -41 -16 -80 -35z m241 -58 c185 -79 398 -153 571 -197 73 -19
133 -38 133 -42 0 -33 -435 98 -707 213 -121 51 -166 63 -65 17 105 -47 226
-96 307 -122 111 -36 135 -46 131 -54 -2 -3 12 -7 31 -8 19 -1 67 -12 107 -24
39 -12 96 -27 126 -33 l55 -12 3 -284 c3 -261 -3 -438 -14 -427 -3 2 -8 56
-13 118 l-8 114 -2 -82 c0 -45 -5 -85 -11 -88 -5 -3 -10 -12 -10 -18 0 -7 7
-4 14 6 13 16 14 15 14 -17 0 -19 2 -39 5 -43 3 -5 2 -31 -3 -59 l-9 -49 4 54
c2 29 2 51 -2 48 -3 -4 -12 1 -19 11 -15 19 -19 74 -6 86 4 4 7 131 7 282 0
151 -3 260 -7 242 -4 -18 -7 -124 -7 -235 0 -112 -2 -203 -5 -203 -3 0 -11 0
-18 0 -9 0 -9 3 0 12 9 9 11 75 10 248 l-3 235 -2 -234 c-3 -227 -4 -234 -26
-252 -20 -17 -20 -18 -2 -12 17 6 18 5 7 -9 -9 -11 -10 -18 -2 -23 6 -4 9 -1
8 6 -2 6 2 13 9 16 12 4 12 -21 0 -33 -4 -4 -7 -33 -7 -65 0 -32 -4 -60 -9
-63 -4 -3 -6 -17 -3 -32 3 -19 7 -22 13 -12 5 8 9 -16 11 -62 l1 -75 8 60 c6
58 6 58 4 -15 -3 -80 -12 -113 -26 -104 -5 3 -5 13 1 24 13 25 13 39 -1 20 -8
-11 -9 5 -6 60 4 55 3 68 -4 50 -6 -14 -9 -48 -8 -77 2 -31 -3 -58 -10 -67
-11 -13 -11 -16 -1 -16 9 0 9 -4 2 -13 -8 -9 -8 -17 0 -27 8 -13 9 -12 5 2 -3
9 0 21 7 27 9 8 12 1 10 -32 -3 -71 -4 -74 -20 -47 -14 24 -15 24 -12 -22 2
-25 0 -44 -4 -42 -6 4 -22 -33 -20 -46 0 -3 -10 -19 -23 -36 -13 -17 -21 -35
-17 -39 4 -5 2 -5 -5 -1 -6 3 -14 2 -18 -4 -4 -6 -10 -8 -15 -5 -5 3 -11 1
-15 -5 -8 -13 -35 -13 -35 0 0 5 5 9 12 7 6 -1 13 7 15 18 3 20 3 20 -7 0 -7
-15 -8 -8 -4 25 5 39 27 90 38 90 2 0 7 -7 10 -16 3 -8 2 -12 -3 -9 -5 3 -13
0 -17 -6 -5 -8 -3 -9 6 -4 8 5 11 3 8 -6 -3 -8 -10 -13 -15 -12 -5 1 -10 -8
-10 -20 -2 -19 0 -18 22 8 13 17 24 26 25 21 0 -6 -9 -19 -20 -31 -13 -14 -18
-28 -14 -39 6 -15 9 -15 30 5 33 31 30 48 -3 18 l-28 -24 20 25 c11 14 31 38
45 53 21 23 22 27 6 21 -14 -5 -17 -4 -12 5 4 6 8 47 9 90 1 44 5 83 10 87 8
9 9 2 7 -96 -1 -41 1 -73 4 -70 2 3 5 39 7 80 1 50 7 81 17 93 16 18 4 25 -14
7 -5 -5 -15 -6 -22 -1 -10 6 -10 10 3 21 11 9 15 9 15 1 0 -7 4 -10 10 -6 5 3
8 78 8 178 -2 158 -2 163 -8 67 -3 -58 -7 -101 -8 -96 -1 5 -11 1 -22 -9 -15
-14 -20 -31 -20 -74 0 -35 -4 -51 -9 -42 -16 24 -24 -8 -29 -111 -3 -69 -9
-101 -19 -110 -20 -16 -45 -19 -40 -5 2 7 8 12 13 12 26 1 34 19 32 73 l-1 57
-7 -60 c-4 -33 -5 17 -2 110 3 108 9 173 16 177 6 4 -2 8 -19 8 -21 0 -26 -3
-16 -9 19 -12 5 -335 -15 -352 -9 -8 -14 -8 -14 -1 0 6 5 14 10 17 6 4 9 51 9
113 -1 59 -4 95 -6 80 -2 -16 -10 -28 -16 -28 -19 0 -45 -36 -38 -51 4 -8 4
-32 0 -54 -3 -22 -7 -32 -8 -22 -1 21 -4 21 -38 -1 -34 -21 -45 -49 -13 -32
11 6 20 16 20 22 0 9 3 9 12 0 8 -8 8 -15 -3 -29 -12 -14 -9 -14 13 2 18 13
27 29 28 48 0 15 5 27 10 27 7 0 7 6 0 20 -8 14 -8 26 0 40 15 29 23 25 16 -7
-5 -20 -4 -24 3 -13 7 11 9 4 7 -25 -2 -22 -4 -53 -5 -70 -1 -24 -3 -27 -12
-15 -9 12 -9 11 -4 -5 4 -11 7 -28 7 -38 0 -9 3 -15 8 -12 4 3 4 -14 -2 -37
-5 -24 -7 -50 -5 -60 3 -9 0 -19 -7 -22 -6 -2 -3 -5 8 -5 12 -1 16 -6 12 -17
-4 -11 2 -10 24 6 18 13 30 17 30 9 0 -8 5 -8 17 2 9 8 -1 -12 -22 -43 l-38
-58 -105 0 c-58 0 -103 -2 -100 -5 2 -3 46 -5 96 -6 51 0 92 -4 92 -8 0 -23
-32 -31 -125 -33 l-100 -2 95 -6 c94 -6 76 -14 -30 -12 l-55 1 45 -10 c25 -5
63 -7 85 -3 l40 6 -23 -23 c-19 -20 -32 -24 -90 -23 -63 1 -63 1 -9 -3 58 -4
66 -10 45 -31 -16 -16 -134 -16 -144 0 -5 7 0 9 14 6 11 -3 36 -2 54 2 30 7
27 8 -22 9 -80 1 -49 24 43 32 l72 6 -66 1 c-42 1 -72 -3 -84 -12 -17 -12 -23
-12 -48 6 -27 19 -31 40 -4 22 7 -5 1 1 -13 13 -14 13 -21 23 -16 23 5 0 3 7
-4 16 -11 13 -10 16 8 21 12 3 22 9 22 15 0 5 -7 5 -17 0 -10 -4 -28 -7 -41
-6 -12 0 -25 -2 -28 -7 -2 -4 -12 -6 -22 -3 -14 5 -15 4 -2 -5 13 -9 8 -15
-12 -13 -3 1 -9 -5 -12 -13 -3 -8 0 -15 6 -15 9 0 9 -3 1 -11 -6 -6 -9 -17 -6
-24 3 -10 13 -9 39 7 19 11 31 24 28 29 -8 14 10 10 32 -6 13 -11 15 -15 4
-13 -8 1 -30 -6 -47 -15 -34 -18 -42 -29 -20 -26 28 3 46 -2 71 -22 35 -28 26
-37 -11 -11 -31 22 -98 38 -88 22 3 -6 18 -10 33 -10 30 0 75 -27 67 -40 -3
-4 3 -14 12 -21 12 -10 14 -10 9 -1 -4 6 -2 12 4 12 6 0 13 -7 16 -15 4 -8 16
-15 28 -14 20 0 20 1 -2 10 -13 5 -20 13 -17 19 4 6 3 9 -2 8 -4 -2 -9 2 -11
7 -2 6 -13 20 -24 32 -30 33 -10 28 25 -4 22 -22 41 -29 90 -34 l62 -6 -65 -2
c-46 -2 -59 -5 -45 -11 11 -4 38 -6 60 -3 29 3 36 2 25 -6 -8 -5 -18 -7 -24
-4 -5 3 -6 2 -3 -4 4 -6 -5 -21 -19 -34 -19 -18 -37 -24 -74 -24 -26 0 -46 3
-43 8 2 4 -1 7 -8 7 -7 0 -10 2 -8 4 2 2 25 1 51 -3 26 -4 53 -4 60 0 8 5 -9
9 -42 9 -32 0 -50 4 -45 9 6 5 31 6 58 2 26 -5 50 -5 52 0 7 10 -98 17 -110 7
-16 -14 -28 -9 -15 7 10 12 6 18 -22 35 -18 11 -37 20 -43 20 -16 -1 27 -30
44 -30 13 -1 13 -3 -2 -14 -16 -13 -16 -14 -1 -20 9 -4 14 -9 11 -13 -4 -3 -2
-14 4 -24 7 -14 17 -17 38 -13 34 7 50 -11 23 -25 -13 -7 -23 -6 -32 2 -10 10
-11 7 -5 -10 13 -45 -12 -21 -51 47 -21 38 -42 70 -46 70 -19 0 -7 -82 17
-120 31 -49 33 -72 3 -40 -13 14 -21 25 -18 25 11 0 -50 76 -86 106 -71 58
-116 94 -125 97 -5 2 -25 19 -44 38 -38 36 -76 58 -172 97 -76 31 -128 43
-119 29 3 -6 -3 -14 -15 -17 -17 -6 -19 -9 -8 -16 11 -7 9 -10 -9 -15 -15 -4
-21 -12 -18 -21 3 -8 2 -11 -3 -8 -5 3 -12 1 -16 -5 -4 -6 5 -10 20 -10 27 0
172 -53 246 -90 24 -12 40 -18 34 -12 -5 5 -35 22 -65 37 -30 15 -63 31 -72
36 -10 5 -25 9 -33 9 -8 0 -15 5 -15 10 0 6 -9 10 -19 10 -28 0 -37 21 -16 33
23 12 95 17 95 7 0 -5 15 -12 33 -15 17 -4 37 -10 42 -14 10 -6 16 -7 36 -10
5 0 7 -6 3 -13 -5 -8 -2 -9 9 -5 11 4 17 1 17 -8 0 -8 3 -14 8 -13 19 6 201
-137 202 -159 1 -17 59 -75 69 -69 7 5 8 1 5 -9 -4 -8 -1 -22 6 -30 10 -12 1
-21 -51 -55 -34 -22 -68 -40 -75 -40 -16 0 -74 33 -74 43 0 4 -5 7 -11 7 -12
0 -124 77 -169 116 -152 130 -180 158 -180 171 0 16 29 15 100 -2 16 -4 13 0
-10 10 -19 10 -48 17 -63 17 -16 -1 -31 6 -34 14 -6 17 -53 19 -53 2 0 -15
-24 13 -83 97 -23 33 -40 66 -39 73 2 7 -3 11 -10 10 -10 -2 -14 22 -19 92
l-5 95 -3 -75 c-3 -72 -3 -74 -16 -45 -8 17 -14 64 -15 110 0 75 -2 81 -32
114 -18 18 -27 31 -21 27 7 -4 21 -3 31 3 14 8 18 6 19 -11 2 -17 0 -18 -15
-6 -15 12 -16 11 -3 -4 7 -10 17 -15 22 -12 5 3 10 -37 11 -88 l2 -93 3 87 c3
56 -1 96 -8 110 -11 21 -11 22 4 9 12 -9 17 -29 17 -62 0 -26 4 -50 9 -53 4
-3 7 5 5 17 -9 66 -10 116 -3 111 5 -3 9 -14 9 -24 0 -10 4 -21 9 -24 11 -7 2
34 -11 51 -5 6 -17 9 -26 6 -9 -3 -14 -3 -10 2 4 4 3 14 -2 20 -8 9 -6 14 5
18 10 4 23 -6 40 -31 23 -33 25 -46 25 -142 0 -58 4 -110 8 -117 10 -16 2 219
-9 239 -6 10 -5 19 1 23 6 4 7 11 4 17 -5 8 -1 9 10 5 10 -4 15 -3 11 3 -11
17 22 11 36 -7 12 -14 12 -16 -2 -11 -10 4 -16 1 -16 -8 0 -8 3 -12 5 -9 3 3
12 -1 20 -8 13 -10 15 -9 9 7 -6 14 -4 17 8 12 31 -11 14 10 -22 29 -45 22
-83 54 -83 69 0 5 14 -3 32 -20 l32 -29 -29 36 c-17 19 -32 31 -33 27 -2 -4
-8 -6 -13 -2 -5 3 -9 0 -9 -7 0 -7 -3 -9 -7 -5 -4 4 -7 24 -6 44 1 31 0 32 -4
7 -7 -43 -23 -56 -24 -20 0 17 -3 24 -6 17 -9 -23 7 -63 24 -60 9 2 18 -2 20
-9 3 -8 -3 -11 -17 -8 -16 3 -20 0 -16 -11 10 -25 -17 -10 -31 17 -9 16 -13
19 -15 9 -1 -8 -5 32 -8 90 l-7 105 0 -110 c-1 -60 4 -116 9 -122 7 -9 7 -13
0 -13 -6 0 -18 12 -27 28 -14 24 -15 24 -9 3 5 -18 3 -22 -7 -16 -8 5 -11 4
-6 -1 5 -5 13 -9 18 -9 5 0 9 -4 10 -10 0 -5 8 -18 16 -27 23 -26 4 -22 -26 5
l-26 22 25 -29 c21 -25 22 -28 6 -22 -12 4 -4 -10 22 -39 41 -44 42 -46 41
-112 -1 -66 -2 -66 -9 -23 -15 89 -31 130 -55 146 -13 8 -24 23 -24 32 -2 42
-4 58 -12 68 -5 6 -12 181 -15 390 -3 208 -9 381 -11 384 -3 3 -4 -152 -1
-345 4 -327 4 -342 -9 -235 -8 74 -12 214 -10 394 l2 279 134 33 c74 19 137
36 139 39 10 10 -22 5 -92 -14 -166 -43 -196 -48 -196 -32 0 4 57 23 128 41
225 58 475 146 662 234 30 14 60 26 66 26 6 0 78 -29 160 -64z m626 -868 c-17
-17 -15 -94 3 -122 16 -23 25 -160 12 -173 -4 -3 -7 26 -7 65 0 49 -4 75 -15
86 -18 18 -21 136 -3 154 6 6 14 9 17 7 2 -3 -1 -11 -7 -17z m-90 -230 c-3
-47 -9 -69 -25 -87 -12 -13 -16 -21 -8 -16 11 6 13 4 8 -8 -3 -9 -7 -59 -8
-112 -1 -52 -6 -95 -11 -95 -5 0 -6 5 -3 10 3 6 1 10 -6 10 -10 0 -10 3 -1 12
7 7 11 37 10 78 l-2 65 -3 -60 c-2 -33 -7 -63 -11 -67 -4 -4 -4 32 0 80 3 48
7 95 7 105 1 10 5 16 10 12 16 -9 25 17 22 63 -2 33 10 72 23 72 0 0 -1 -28
-2 -62z m15 -40 c-2 -18 -4 -6 -4 27 0 33 2 48 4 33 2 -15 2 -42 0 -60z
m-1309 -10 c-7 -4 -14 -12 -14 -18 -1 -5 -2 -13 -3 -16 0 -4 -10 5 -22 20 -11
14 -25 24 -30 21 -5 -4 -6 1 -3 9 3 9 11 14 17 13 7 -1 11 6 10 16 -1 16 4 14
28 -9 21 -20 26 -30 17 -36z m-103 12 c10 -11 15 -20 10 -20 -4 0 -2 -6 4 -14
19 -23 -15 -28 -41 -5 -15 12 -17 17 -6 13 17 -6 19 10 5 34 -13 19 8 14 28
-8z m-31 -174 c21 -66 20 -82 -3 -26 -26 65 -35 97 -23 85 5 -5 17 -32 26 -59z
m1302 -146 c-8 -30 -14 -46 -15 -35 -1 23 19 99 24 93 2 -2 -2 -28 -9 -58z
m-402 -192 c-6 -10 -4 -10 7 0 13 12 38 18 26 5 -4 -3 -2 -12 4 -19 8 -10 2
-12 -27 -9 -32 2 -35 1 -21 -10 15 -11 14 -13 -9 -23 -33 -16 -39 -15 -24 3 7
8 9 15 4 15 -4 0 3 11 16 25 26 27 35 32 24 13z m91 -102 c17 -14 25 -25 19
-26 -6 0 -19 9 -29 20 -12 13 -26 18 -39 14 -15 -4 -17 -3 -7 4 8 6 9 12 3 16
-6 3 -13 2 -17 -4 -3 -5 -11 -10 -18 -10 -6 0 -2 6 8 14 22 16 32 12 80 -28z
m294 -30 c10 -11 7 -17 -10 -30 -22 -15 -39 -13 -39 5 0 5 10 10 23 10 17 1
18 2 4 6 -9 2 -15 9 -12 14 9 13 21 11 34 -5z"/>
<path d="M1230 2420 c-80 -33 -141 -59 -136 -59 11 -1 183 63 248 93 94 43 37
25 -112 -34z"/>
<path d="M1440 2454 c0 -15 -40 -26 -40 -11 0 7 -5 4 -11 -7 -9 -15 -13 -16
-20 -5 -6 10 -9 7 -9 -11 0 -20 -2 -22 -10 -10 -9 13 -10 13 -10 0 0 -13 -1
-13 -10 0 -8 13 -10 12 -10 -2 0 -10 -4 -18 -9 -18 -5 0 -12 8 -14 18 -3 10
-5 5 -7 -13 -1 -26 -3 -27 -10 -10 -7 18 -8 19 -15 3 -4 -10 -11 -15 -16 -12
-5 3 -9 1 -9 -3 0 -5 -10 -10 -22 -10 -13 -1 -28 -10 -35 -19 -10 -14 -13 -14
-13 -3 0 12 -2 12 -10 -1 -5 -8 -10 -11 -10 -6 0 5 -6 3 -14 -3 -11 -10 -15
-8 -19 6 -4 14 -5 13 -6 -5 0 -13 -5 -20 -11 -17 -5 3 -10 0 -10 -7 0 -9 -3
-9 -10 2 -8 12 -10 12 -10 1 0 -11 -3 -11 -15 -1 -13 10 -15 9 -16 -11 -1 -21
-2 -21 -6 -4 -9 37 -22 45 -50 30 -14 -7 -32 -11 -39 -8 -9 3 -14 -2 -14 -13
0 -11 4 -15 8 -9 11 15 42 15 42 0 0 -7 3 -20 6 -29 3 -9 1 -16 -4 -16 -6 0
-13 10 -15 23 -3 14 -5 9 -6 -15 -1 -31 2 -35 19 -31 11 3 20 10 20 15 0 5 4
7 9 3 5 -3 16 2 25 10 9 9 24 18 33 20 10 2 102 38 205 79 103 42 198 76 212
76 13 0 46 -10 73 -21 26 -12 102 -41 168 -64 l120 -43 6 -43 c5 -37 6 -33 7
26 0 39 -2 63 -6 55 -8 -18 -32 -25 -32 -9 0 5 -4 7 -10 4 -5 -3 -10 -1 -10 5
0 6 -4 9 -9 5 -5 -3 -13 0 -16 6 -4 5 -13 8 -21 5 -8 -3 -14 -1 -14 5 0 6 -4
7 -10 4 -5 -3 -10 2 -11 12 0 10 -3 13 -6 6 -3 -10 -9 -9 -20 3 -13 13 -17 13
-24 2 -7 -10 -9 -10 -9 3 0 10 -8 15 -22 14 -13 -1 -32 4 -43 11 -11 8 -27 14
-37 14 -10 0 -18 8 -19 18 0 14 -2 14 -9 -3 -9 -20 -9 -20 -9 0 -1 12 -4 16
-9 9 -8 -14 -54 -13 -64 1 -5 6 -8 6 -8 -1z"/>
<path d="M1401 2393 c-32 -12 -40 -18 -30 -25 10 -7 7 -8 -11 -4 -30 6 -61 -8
-36 -17 23 -9 112 23 95 34 -11 7 -11 9 1 9 8 0 21 -4 28 -8 8 -6 -25 -23 -96
-50 -109 -42 -147 -52 -103 -28 20 11 21 14 6 19 -9 4 -24 3 -33 -3 -14 -8
-14 -9 -2 -10 13 0 13 -1 0 -10 -13 -9 -13 -10 0 -10 22 -1 -40 -33 -71 -36
-15 -2 -76 -26 -135 -54 -60 -29 -95 -49 -79 -46 28 6 29 5 11 -9 -13 -9 -15
-15 -7 -15 8 0 2 -9 -12 -20 -27 -21 -53 -27 -42 -10 4 6 1 17 -5 25 -10 12
-9 15 6 15 15 0 16 2 5 9 -11 7 -11 9 0 14 10 4 11 6 1 6 -7 1 -17 13 -23 29
-7 15 -13 22 -16 14 -3 -6 -9 -10 -14 -6 -5 3 -12 -3 -16 -12 -6 -16 -7 -16
-14 2 -6 15 -8 12 -8 -13 -1 -17 -6 -33 -13 -35 -12 -4 -9 -12 17 -58 8 -14
15 -20 15 -15 0 6 32 9 77 8 62 -1 82 3 98 17 24 22 314 163 370 180 22 7 61
23 88 37 42 21 49 22 70 9 20 -13 169 -77 209 -90 13 -4 18 -20 21 -68 l3 -63
2 76 c1 54 -2 78 -10 82 -129 55 -182 76 -186 72 -5 -5 84 -46 141 -64 20 -7
39 -16 42 -21 6 -10 -38 4 -110 35 -91 39 -107 48 -93 56 7 5 -6 6 -30 4 -25
-2 -40 0 -37 6 4 5 -5 4 -20 -3 -19 -8 -22 -14 -13 -21 9 -6 5 -7 -10 -4 -13
3 -42 -1 -64 -9 -77 -27 -63 -13 20 20 97 39 101 42 71 51 -17 6 -19 9 -8 16
20 13 0 10 -50 -8z m9 -83 c-8 -5 -37 -17 -65 -26 -27 -9 -126 -55 -219 -102
-154 -78 -224 -106 -197 -79 6 6 18 11 28 12 10 0 25 5 33 10 8 5 85 45 170
87 85 43 151 78 146 78 -13 0 -130 -53 -137 -62 -3 -5 -14 -6 -25 -2 -12 4
-15 3 -7 -3 9 -6 -13 -21 -70 -48 -45 -21 -91 -40 -102 -42 -19 -3 -19 -2 -2
11 10 8 13 16 7 18 -12 4 153 79 184 83 12 1 47 15 80 29 32 15 66 24 75 21
10 -3 35 1 57 9 46 17 65 20 44 6z m-546 -136 c8 -21 8 -21 -13 -27 -14 -3
-18 1 -16 17 3 26 3 26 14 26 5 0 12 -7 15 -16z"/>
<path d="M1045 2190 c-33 -15 -55 -28 -50 -29 6 0 37 13 70 29 33 15 56 28 50
29 -5 0 -37 -13 -70 -29z"/>
<path d="M1555 2386 c28 -13 44 -25 37 -25 -7 -1 -21 3 -31 9 -10 5 -31 6 -47
1 -27 -7 -25 -8 22 -14 29 -3 91 -24 139 -47 88 -40 135 -57 135 -47 0 3 -24
15 -52 25 -90 35 -167 73 -133 67 22 -3 16 2 -22 19 -69 32 -111 43 -48 12z"/>
<path d="M1690 2333 c142 -66 150 -69 150 -56 0 7 -2 13 -3 13 -2 0 -41 14
-87 30 -91 33 -115 38 -60 13z"/>
<path d="M1872 2305 c0 -22 3 -62 8 -90 7 -48 7 -49 8 -10 0 22 -3 63 -8 90
-7 48 -7 49 -8 10z"/>
<path d="M1435 2294 c-27 -13 -41 -21 -30 -18 11 3 29 9 40 12 31 9 72 32 55
31 -8 0 -37 -11 -65 -25z"/>
<path d="M1497 2298 c-15 -5 -25 -13 -22 -18 3 -4 -3 -7 -13 -6 -14 1 -18 -9
-20 -53 -2 -36 2 -58 12 -70 8 -9 16 -27 18 -40 3 -22 5 -20 37 20 l34 44 -31
-29 c-31 -29 -32 -29 -32 -7 0 12 4 19 10 16 6 -3 10 -1 10 5 0 6 -10 8 -24 4
-22 -5 -23 -3 -20 35 1 22 5 45 9 51 10 16 45 12 45 -5 0 -8 -5 -15 -11 -15
-5 0 -7 5 -4 10 3 6 2 10 -3 10 -6 0 -12 -16 -14 -35 -2 -19 -3 -35 -1 -35 1
0 14 5 29 12 24 11 26 16 22 59 l-5 47 54 -24 c29 -13 78 -35 108 -49 30 -14
55 -21 55 -16 0 7 -52 31 -185 86 -21 9 -38 9 -58 3z"/>
<path d="M1992 2205 c-1 -68 2 -105 10 -113 16 -16 -2 -15 -24 1 -11 9 -18 32
-21 68 -3 53 -3 53 -5 -13 -2 -58 0 -67 14 -61 13 5 15 2 9 -15 -3 -13 -2 -22
4 -22 5 0 22 -11 38 -23 15 -13 38 -23 51 -22 21 2 22 -2 23 -64 3 -147 -4
-366 -12 -371 -15 -10 9 -33 29 -28 17 5 22 0 25 -26 4 -37 -1 280 -8 407 -2
49 0 87 5 87 5 0 11 -80 13 -177 l3 -178 0 200 -1 200 -50 5 c-27 3 -56 9 -62
13 -9 6 -14 41 -15 110 l-2 102 -5 -95 -5 -95 -6 105 -6 105 -2 -100z m33
-145 c-3 -4 3 -14 13 -21 15 -13 16 -12 3 4 -8 10 -9 17 -3 17 6 0 13 -4 17
-9 3 -5 21 -8 40 -5 26 3 35 0 35 -11 0 -8 -3 -15 -7 -15 -5 0 -8 -99 -8 -220
0 -121 3 -220 8 -220 13 0 7 -18 -9 -24 -15 -6 -16 10 -14 156 2 90 2 197 1
239 l-1 75 -32 -2 c-23 -2 -42 5 -63 22 -16 14 -22 22 -12 18 10 -4 17 -1 17
6 0 6 5 8 10 5 6 -4 8 -10 5 -15z"/>
<path d="M1080 2259 c-30 -15 -72 -34 -92 -40 -21 -7 -38 -16 -38 -22 0 -5 -7
-6 -16 -3 -8 3 -12 2 -9 -4 3 -6 1 -10 -6 -10 -7 0 -10 -2 -7 -5 2 -3 54 18
114 45 60 27 115 50 122 50 7 0 10 5 7 10 -8 13 -10 12 -75 -21z"/>
<path d="M1906 2283 c-3 -3 -6 -11 -6 -17 0 -6 5 -4 10 4 7 10 10 -21 10 -97
0 -65 4 -114 10 -118 6 -4 8 -10 5 -14 -2 -5 5 -17 18 -27 18 -16 19 -16 8 -1
-8 10 -9 17 -3 17 6 0 14 -5 17 -10 4 -6 10 -8 15 -5 4 3 11 -2 14 -11 5 -12
2 -15 -9 -10 -9 3 -14 2 -10 -3 3 -5 -1 -12 -7 -15 -7 -2 -3 -4 9 -3 12 1 22
-2 22 -8 0 -5 -7 -9 -15 -9 -17 2 -17 -8 -3 -59 13 -49 4 -77 -26 -77 -29 0
-43 18 -21 26 20 8 21 24 1 24 -8 0 -15 7 -15 15 0 18 -9 19 -30 4 -12 -9 -12
-10 3 -5 15 5 18 1 16 -17 -2 -26 24 -90 34 -81 4 4 5 -7 3 -24 -2 -17 1 -29
5 -26 5 3 9 1 9 -5 0 -6 15 -14 33 -19 18 -5 37 -18 44 -33 l13 -24 0 23 c0
18 -11 28 -47 44 -40 18 -45 22 -28 28 20 7 20 7 0 12 -18 5 -17 6 3 7 16 1
26 -6 29 -18 5 -19 43 -37 43 -21 0 11 -55 50 -70 50 -6 0 -18 7 -26 15 -14
13 -11 15 23 14 30 0 34 -2 18 -9 -19 -8 -19 -9 3 -9 22 -1 29 9 15 23 -12 11
-3 79 13 97 12 13 11 18 -3 32 -16 15 -16 17 -1 17 9 0 19 -6 21 -12 4 -9 6
-7 6 3 1 14 -47 66 -66 71 -5 1 -18 14 -29 28 -17 20 -23 44 -29 128 -7 96
-13 120 -29 105z"/>
<path d="M2038 2185 c2 -55 6 -102 8 -104 7 -8 2 154 -6 179 -4 14 -5 -20 -2
-75z"/>
<path d="M1310 2246 c-64 -27 -304 -150 -275 -141 37 12 205 17 205 7 0 -39
-10 -42 -119 -40 l-106 2 100 6 100 6 -92 2 c-89 2 -111 -3 -163 -34 -25 -15
-25 -15 10 -8 19 4 78 8 130 9 101 2 154 10 146 24 -3 4 4 18 15 30 13 14 16
22 8 20 -32 -4 -69 2 -69 11 0 5 18 18 40 29 36 17 44 18 68 5 15 -7 23 -14
18 -14 -5 0 -2 -8 7 -18 10 -10 14 -22 10 -27 -5 -4 -3 -5 4 -1 6 3 18 -3 26
-14 7 -11 16 -17 20 -14 3 3 -9 19 -26 36 -29 26 -30 29 -9 25 12 -3 20 -1 16
4 -9 15 13 10 26 -6 7 -8 9 -15 6 -15 -16 0 14 -34 31 -35 23 -2 28 28 7 46
-8 6 -14 20 -14 31 0 10 -7 21 -15 24 -9 4 -14 17 -14 33 2 23 2 24 6 4 6 -33
23 -28 23 7 0 27 -2 29 -22 21 -13 -5 -36 -14 -51 -20 -25 -10 -27 -13 -16
-33 7 -13 17 -26 23 -30 6 -4 7 -10 4 -13 -8 -8 -68 25 -68 37 0 12 14 10 29
-4 11 -11 11 -9 0 9 -13 21 -13 21 -121 -35 -59 -31 -110 -53 -113 -51 -4 5
196 108 265 137 14 6 21 11 15 11 -5 0 -35 -10 -65 -23z m70 -27 c0 -7 16 -31
35 -55 40 -48 42 -53 18 -50 -9 2 -17 10 -19 19 -1 9 -14 31 -28 50 -28 37
-32 47 -16 47 6 0 10 -5 10 -11z"/>
<path d="M1540 2234 c0 -23 -7 -42 -17 -51 -16 -13 -15 -13 7 0 14 8 26 25 28
41 2 14 8 26 14 26 5 0 7 -7 4 -16 -3 -9 -6 -24 -6 -34 0 -11 -14 -35 -31 -55
-23 -26 -27 -34 -13 -29 18 5 18 5 1 -9 -16 -13 -16 -14 9 -14 14 0 30 -6 34
-13 4 -7 25 -12 47 -12 21 0 45 -3 53 -8 8 -5 19 -3 28 6 12 13 12 18 -2 39
-9 14 -22 25 -29 25 -8 0 -7 4 3 10 8 5 11 10 5 10 -5 0 -17 -4 -25 -10 -12
-8 -12 -10 3 -16 19 -7 42 -42 33 -51 -3 -3 -13 3 -23 14 -10 10 -14 13 -9 6
12 -18 -4 -16 -26 4 -10 9 -21 13 -25 9 -4 -4 -1 -11 7 -16 22 -13 8 -19 -20
-8 l-25 9 28 17 c27 17 36 32 17 32 -5 0 -13 -6 -17 -14 -4 -7 -17 -16 -29
-20 -15 -5 -21 -2 -21 11 0 20 15 43 29 43 5 0 6 -6 2 -12 -4 -7 -3 -9 1 -5
16 14 18 109 3 118 -27 17 -38 9 -38 -27z"/>
<path d="M1600 2206 c0 -36 4 -46 21 -51 26 -8 31 -3 22 20 -6 18 -7 18 -14
-1 -5 -13 -8 -7 -8 23 -1 23 -5 45 -11 48 -6 4 -10 -11 -10 -39z"/>
<path d="M1773 2175 c0 -44 2 -61 4 -37 2 23 2 59 0 80 -2 20 -4 1 -4 -43z"/>
<path d="M1794 2133 c1 -68 -3 -115 -9 -117 -5 -2 1 -4 15 -3 39 1 50 13 36
42 -6 14 -16 25 -23 25 -8 0 -13 27 -16 83 -3 57 -4 48 -3 -30z"/>
<path d="M1811 2193 c-1 -35 3 -63 8 -63 4 0 6 24 4 53 -7 77 -11 81 -12 10z"/>
<path d="M1630 2216 c0 -9 8 -16 17 -16 9 0 32 -5 50 -12 33 -12 33 -14 27
-54 -3 -24 -1 -50 5 -61 8 -14 10 -4 11 48 l0 67 -42 17 c-24 9 -49 19 -55 22
-7 3 -13 -2 -13 -11z"/>
<path d="M2063 2155 c0 -44 2 -61 4 -37 2 23 2 59 0 80 -2 20 -4 1 -4 -43z"/>
<path d="M2082 2159 c-2 -74 -1 -77 23 -83 14 -4 34 -2 45 4 15 8 21 8 25 -2
3 -7 6 -103 8 -213 l2 -200 2 220 c2 180 0 224 -12 239 -8 11 -16 34 -16 50
-2 28 -3 27 -9 -9 l-7 -40 -3 45 c-3 39 -4 41 -7 13 -3 -24 -9 -33 -23 -33
-15 0 -20 9 -23 43 -2 26 -4 13 -5 -34z"/>
<path d="M2200 1955 c0 -148 3 -266 6 -263 7 7 6 519 -1 526 -3 3 -5 -115 -5
-263z"/>
<path d="M1270 2168 c0 -16 30 -47 30 -32 0 5 4 2 10 -6 5 -8 11 -12 14 -9 3
3 -8 18 -24 34 -22 21 -30 24 -30 13z"/>
<path d="M2317 1883 c2 -163 6 -299 9 -302 3 -3 4 129 2 293 -2 164 -6 300 -9
302 -3 2 -4 -130 -2 -293z"/>
<path d="M1877 2121 c-4 -24 -5 -46 -2 -49 11 -11 16 8 13 49 l-3 44 -8 -44z"/>
<path d="M1901 2103 c0 -28 2 -54 7 -57 4 -2 6 14 4 37 -5 68 -10 76 -11 20z"/>
<path d="M1320 2089 c0 -5 5 -7 10 -4 6 3 10 2 10 -3 0 -5 -9 -12 -21 -15 -16
-4 -19 -2 -15 11 4 10 -1 8 -12 -6 -10 -13 -24 -21 -33 -17 -10 4 -15 -2 -16
-17 -2 -18 0 -20 7 -8 5 8 10 12 10 8 0 -4 21 2 46 12 25 11 50 18 55 14 14
-8 10 3 -7 20 -18 18 -34 21 -34 5z"/>
<path d="M1751 2078 c4 -31 -1 -40 -18 -33 -11 4 -7 -5 11 -24 17 -17 31 -31
33 -31 6 0 -11 36 -21 43 -6 5 -1 5 12 2 13 -4 22 -2 22 5 0 6 -4 9 -9 5 -5
-3 -12 -1 -16 5 -3 5 -1 10 4 10 6 0 11 7 11 15 0 8 -7 15 -15 15 -9 0 -15 -6
-14 -12z"/>
<path d="M712 1743 c0 -183 3 -333 6 -333 7 0 5 575 -2 635 -2 17 -3 -120 -4
-302z"/>
<path d="M752 1880 c0 -107 4 -229 7 -270 4 -41 5 42 3 185 -2 143 -5 265 -7
270 -2 6 -3 -78 -3 -185z"/>
<path d="M1874 2033 c22 -20 45 -53 52 -72 14 -40 15 -40 17 7 1 17 -2 32 -6
32 -4 0 -19 10 -32 23 -38 36 -54 47 -62 47 -4 0 10 -17 31 -37z"/>
<path d="M734 1830 c0 -129 2 -182 3 -117 2 64 2 170 0 235 -1 64 -3 11 -3
-118z"/>
<path d="M1100 2043 c35 -2 68 -9 73 -16 6 -8 7 -8 4 3 -3 11 -20 15 -73 16
l-69 1 65 -4z"/>
<path d="M694 1900 c0 -80 2 -112 3 -72 2 39 2 105 0 145 -1 39 -3 7 -3 -73z"/>
<path d="M2161 1854 c0 -105 -4 -233 -8 -283 -6 -85 -8 -94 -30 -104 -22 -10
-23 -15 -21 -91 2 -80 2 -81 6 -16 3 63 4 66 43 90 l39 24 -2 96 -2 95 -3 -90
c-2 -49 -7 -93 -12 -98 -4 -4 -5 113 -3 260 2 148 2 277 -1 288 -2 11 -5 -66
-6 -171z"/>
<path d="M933 2023 c-40 -2 -73 -7 -73 -11 0 -4 37 -4 83 -1 45 4 107 6 137 3
42 -2 48 -1 25 5 -31 9 -51 9 -172 4z"/>
<path d="M1410 2009 c-67 -10 -175 -66 -230 -119 -27 -26 -46 -50 -43 -54 4
-3 1 -6 -6 -6 -7 0 -9 -4 -6 -10 3 -5 2 -10 -4 -10 -27 0 -70 -140 -71 -226 0
-94 42 -270 62 -258 7 5 8 3 4 -5 -10 -16 13 -73 27 -64 6 3 7 1 3 -6 -4 -6
-2 -27 5 -46 11 -29 15 -32 28 -22 12 10 13 9 5 -3 -5 -8 -9 -44 -10 -80 -1
-36 -8 -88 -17 -117 l-16 -52 32 -6 c103 -22 329 -142 376 -199 8 -9 22 -21
31 -26 16 -9 16 -6 -1 27 -26 50 -24 96 4 128 20 23 32 27 125 34 123 11 142
22 142 86 0 30 5 45 16 49 12 4 14 13 10 31 -5 18 -2 27 10 32 12 5 15 14 10
43 -5 34 -3 38 34 59 25 14 40 30 40 41 0 11 -16 48 -35 83 -31 56 -35 72 -33
124 2 34 7 58 12 55 11 -6 2 190 -10 209 -4 8 -9 19 -9 24 0 17 -30 75 -38 75
-5 0 -5 5 -1 11 4 8 -1 9 -17 4 -17 -4 -20 -3 -10 3 14 10 10 21 -22 59 -11
12 -25 20 -30 16 -6 -3 -7 -1 -4 4 4 6 -2 18 -13 28 -16 14 -23 16 -32 7 -7
-7 -17 -12 -23 -12 -5 0 -2 5 8 11 26 15 14 25 -61 49 -102 34 -165 41 -242
29z m23 -33 c-10 -13 -20 -21 -23 -16 -3 4 -15 6 -28 5 -12 -1 -21 3 -19 9 2
6 18 11 36 12 17 1 34 4 38 8 15 15 13 4 -4 -18z m125 13 c1 -1 7 -3 12 -4 6
-1 12 -4 15 -5 3 -1 10 -3 17 -4 6 0 13 -7 16 -15 3 -8 0 -11 -6 -7 -6 4 -18
-6 -26 -21 -10 -19 -15 -22 -16 -11 0 9 5 20 10 23 17 10 11 25 -10 25 -11 0
-20 5 -20 11 0 5 -4 8 -8 5 -4 -2 -14 0 -22 5 -11 7 -8 8 10 5 14 -3 26 -5 28
-7z m-39 -35 c18 -13 22 -24 19 -50 -3 -29 -1 -33 13 -29 10 3 20 2 23 -4 4
-5 -19 -9 -54 -9 -52 0 -63 3 -76 23 -11 16 -12 29 -5 48 15 38 44 46 80 21z
m-145 -40 c9 -8 16 -22 16 -30 0 -9 10 -14 27 -14 33 0 26 -9 -10 -12 -15 -1
-27 -6 -27 -10 0 -17 -50 -28 -75 -16 -19 9 -25 19 -25 44 0 50 59 74 94 38z
m310 -6 c21 -30 20 -44 -4 -68 -20 -20 -20 -20 1 -41 17 -17 23 -19 30 -8 5 8
9 19 9 24 0 6 5 3 10 -5 6 -10 5 -17 -5 -23 -16 -9 -21 -37 -6 -37 5 0 14 7
21 15 16 20 54 19 74 -1 25 -24 20 -61 -10 -81 -24 -15 -29 -15 -53 -2 -14 8
-28 23 -30 34 -5 26 -63 93 -101 116 -20 13 -30 27 -30 43 0 53 65 76 94 34z
m-488 -67 c-4 -6 -13 -11 -20 -11 -7 0 -21 -18 -31 -40 -10 -23 -22 -43 -26
-46 -5 -3 -2 10 7 28 8 18 17 41 21 51 3 9 14 17 25 17 15 0 18 4 13 18 -5 13
-3 14 6 5 6 -6 8 -16 5 -22z m244 -15 c0 -19 4 -23 20 -19 12 3 20 14 21 27 0
21 0 21 9 -1 5 -13 14 -23 19 -23 5 0 16 -3 24 -6 11 -4 17 2 20 23 4 28 4 28
6 -4 1 -40 19 -46 50 -19 l25 21 -17 -27 c-21 -33 -21 -39 -4 -32 8 3 24 -10
38 -31 16 -24 30 -34 42 -31 19 5 19 4 11 -18 -3 -9 -10 -13 -15 -10 -11 6
-11 -4 1 -31 9 -20 9 -20 9 0 1 17 3 17 11 5 12 -19 13 -43 1 -35 -10 6 -27
-82 -18 -92 14 -14 37 8 37 36 0 16 5 33 11 36 6 4 8 14 4 24 -5 13 -4 14 6 4
7 -7 24 -13 37 -13 14 0 35 -11 48 -25 l23 -25 -25 -30 c-28 -32 -52 -37 -85
-17 -18 11 -24 8 -55 -28 -30 -34 -33 -41 -20 -51 16 -11 22 -34 9 -34 -3 0
-14 7 -24 16 -17 15 -18 14 -24 -9 -10 -37 2 -50 41 -45 19 2 34 3 34 2 0 -1
-3 -9 -6 -17 -4 -13 -12 -12 -53 4 l-48 18 -24 -26 -24 -25 42 7 c23 3 52 3
64 0 22 -7 22 -8 4 -21 -10 -8 -38 -14 -61 -14 -34 0 -45 -5 -59 -26 -23 -35
-31 -23 -11 17 9 18 13 35 9 38 -5 3 -9 14 -11 24 -3 18 41 42 58 32 5 -3 14
4 21 16 10 20 9 21 -17 15 -16 -4 -44 -10 -61 -13 l-33 -5 1 -92 c0 -60 3 -84
9 -71 5 11 9 16 9 12 1 -4 10 -3 21 3 26 14 111 30 105 20 -3 -5 -37 -20 -76
-35 l-71 -27 4 -137 c3 -130 2 -136 -17 -136 -16 0 -19 5 -16 25 11 78 11 233
0 246 -6 8 -36 21 -65 30 -70 20 -83 39 -22 30 36 -5 47 -4 51 8 4 9 1 18 -5
22 -7 4 -8 3 -4 -4 4 -7 3 -12 -3 -12 -5 0 -13 5 -16 10 -3 6 -24 10 -45 10
-27 0 -48 8 -67 24 l-28 25 37 15 c44 19 48 24 37 55 -8 20 -12 21 -25 11 -12
-11 -12 -15 -2 -22 10 -7 10 -8 -2 -7 -30 3 -39 -1 -34 -16 4 -10 -3 -18 -21
-25 -18 -7 -25 -15 -21 -26 4 -9 2 -13 -5 -8 -7 4 -10 1 -7 -7 3 -8 11 -14 20
-14 8 0 27 -8 41 -18 15 -10 33 -15 40 -12 7 4 3 -1 -7 -9 -11 -9 -22 -13 -25
-8 -3 4 -15 14 -26 22 -20 14 -20 14 -2 -7 12 -14 15 -23 8 -28 -6 -3 -11 -12
-11 -18 0 -8 3 -7 9 2 5 8 16 11 24 8 8 -3 19 -1 24 4 11 11 43 2 43 -12 0 -8
-10 -11 -30 -11 -3 0 -16 3 -30 7 l-25 7 25 -18 c14 -10 28 -23 32 -28 5 -7 8
-5 8 4 0 12 12 14 62 10 l63 -4 -55 -7 -55 -6 53 -1 c50 -2 52 -3 51 -29 -2
-24 -2 -25 -6 -5 -4 22 -33 32 -33 11 0 -5 5 -7 10 -4 6 4 10 -12 10 -40 0
-32 4 -44 11 -39 12 7 10 -23 -5 -89 -8 -33 1 -70 15 -62 5 4 10 -6 10 -22 1
-17 3 -21 6 -10 2 9 11 17 19 17 8 0 14 4 14 9 0 5 15 7 33 5 26 -3 28 -2 11
5 -15 7 -23 22 -28 57 -10 78 -7 212 6 220 7 4 8 3 4 -4 -4 -7 -2 -12 4 -12 6
0 8 -4 5 -10 -3 -6 1 -7 10 -3 12 4 13 8 5 13 -7 4 9 11 36 15 42 6 46 9 31
19 -9 7 -14 16 -10 19 12 12 33 7 53 -13 19 -19 19 -19 17 11 -1 17 -7 27 -14
25 -14 -6 -11 17 6 38 24 29 38 12 18 -21 -11 -18 8 -16 23 2 7 8 10 23 6 32
-5 16 -4 17 6 1 11 -14 14 -15 35 -1 22 15 23 14 24 -13 2 -27 2 -27 9 6 5 21
8 27 10 15 2 -17 3 -16 9 5 4 14 13 24 19 22 8 -1 12 23 13 80 0 88 10 135 22
106 3 -9 3 -19 -1 -22 -12 -13 -9 -47 5 -42 7 3 13 1 13 -4 0 -6 -8 -10 -17
-10 -15 0 -16 -2 -3 -10 9 -6 10 -10 3 -10 -12 0 -12 -65 1 -77 3 -3 6 -20 6
-37 0 -23 3 -27 10 -16 7 11 11 8 20 -15 12 -31 2 -83 -14 -77 -13 5 -36 -47
-36 -84 0 -19 -4 -34 -10 -34 -5 0 -10 -14 -10 -30 0 -18 -6 -33 -15 -36 -10
-4 -15 -20 -15 -45 0 -21 -3 -38 -7 -38 -5 1 -53 0 -108 -2 l-100 -3 90 -6 90
-6 -93 -2 c-59 -1 -91 -6 -87 -12 4 -6 -5 -10 -20 -10 -20 0 -26 -4 -21 -15 3
-8 1 -15 -4 -15 -6 0 -10 -11 -10 -24 0 -29 -31 -59 -38 -37 -4 11 -6 11 -13
0 -6 -10 -9 -5 -10 16 0 24 -2 26 -8 11 -7 -18 -8 -18 -14 -2 -4 9 -11 15 -16
11 -6 -3 -14 3 -20 12 -8 14 -11 15 -12 3 -1 -8 -5 -1 -9 15 -7 27 -8 28 -9 5
l-1 -24 -16 22 c-8 12 -20 20 -25 17 -5 -4 -9 -1 -9 5 0 7 -6 10 -14 7 -8 -3
-17 1 -20 10 -4 8 -12 13 -20 10 -8 -3 -23 1 -34 9 -16 11 -21 11 -25 1 -3 -7
-6 -5 -6 6 -1 9 -8 17 -16 17 -8 0 -15 9 -15 20 0 11 5 20 11 20 15 0 8 192
-7 197 -7 2 -10 13 -7 23 3 11 0 20 -6 20 -6 0 -11 9 -11 20 0 11 -4 20 -9 20
-5 0 -7 8 -4 19 3 10 -1 22 -8 27 -9 5 -10 2 -6 -10 4 -11 3 -15 -4 -11 -6 4
-8 13 -5 20 2 7 -2 24 -9 38 -7 15 -11 35 -8 45 2 10 0 34 -6 53 -10 33 -11
33 -6 -11 3 -25 1 -50 -3 -57 -4 -7 -8 4 -9 25 -1 42 -5 62 -15 78 -10 15 -2
157 10 180 10 19 12 26 12 44 0 6 5 10 11 10 6 0 7 -5 2 -12 -12 -20 -14 -48
-3 -48 6 0 10 8 11 18 0 12 2 13 6 3 3 -8 -4 -21 -16 -30 -19 -14 -20 -21 -11
-41 10 -25 10 -25 5 3 -3 15 -1 27 5 27 16 0 11 -53 -7 -75 -13 -16 -15 -17
-10 -2 4 9 2 17 -3 17 -6 0 -10 -9 -10 -20 0 -11 4 -20 9 -20 14 0 52 -130 43
-147 -10 -17 12 -73 29 -73 5 0 10 -8 10 -17 1 -16 2 -15 6 1 4 14 7 16 13 6
4 -7 13 -9 19 -6 17 11 13 26 -7 26 -28 0 -42 21 -42 62 0 28 4 38 16 38 8 0
13 4 10 8 -13 21 57 -3 74 -25 l19 -25 12 26 c10 20 9 30 -5 50 -9 14 -25 30
-35 36 -16 8 -23 6 -35 -12 -9 -12 -16 -17 -16 -10 0 6 -6 12 -14 12 -21 0
-66 40 -66 58 0 15 2 15 10 2 8 -12 10 -9 10 12 0 21 6 29 25 34 18 4 25 13
26 33 1 20 2 22 6 6 3 -11 9 -24 15 -30 6 -6 7 -4 3 8 -4 9 -3 17 1 17 12 0
36 -78 29 -91 -12 -18 5 -28 30 -19 19 7 25 6 25 -4 0 -8 -6 -17 -12 -19 -8
-4 -7 -6 3 -6 9 -1 19 -11 23 -23 7 -30 64 -66 116 -74 22 -4 40 -10 40 -14 0
-10 -81 8 -97 22 -8 6 -16 9 -18 6 -9 -8 6 -38 16 -32 5 3 9 -3 10 -13 0 -12
2 -13 6 -5 6 15 7 13 51 -68 13 -23 19 -39 13 -35 -17 10 -13 -4 9 -32 l20
-26 0 174 0 175 -31 27 c-21 18 -38 25 -50 22 -17 -6 -19 -1 -19 42 l1 48 34
-40 c22 -25 35 -34 35 -24 0 9 9 24 20 34 19 17 20 17 39 -6 25 -30 27 -74 4
-91 -14 -10 -18 -28 -18 -86 0 -85 10 -93 82 -68 22 8 44 13 47 10 3 -2 4 -1
1 2 -2 4 4 18 15 32 11 13 17 29 13 35 -3 6 -1 7 5 3 7 -4 12 -1 12 8 0 26
-36 28 -76 5 -86 -49 -99 -76 -23 -48 64 25 63 4 -2 -28 -55 -28 -59 -28 -59
-3 0 35 28 77 60 91 21 10 28 19 25 30 -6 17 18 49 35 49 5 0 7 6 4 14 -3 8 2
26 11 40 17 25 16 27 -11 60 -16 19 -34 35 -41 35 -7 1 -20 -15 -29 -34 -17
-36 -31 -51 -41 -42 -3 3 7 21 21 40 33 44 33 53 -5 66 -39 14 -80 14 -113 1
-34 -12 -33 -24 5 -72 17 -21 29 -41 26 -44 -2 -3 -14 7 -26 22 -25 32 -50 39
-58 18 -3 -8 -10 -14 -16 -14 -5 0 -2 9 8 20 10 11 22 17 26 14 5 -3 9 -1 9 5
0 25 -25 20 -56 -10 -37 -36 -42 -54 -19 -63 17 -6 21 -46 5 -46 -5 0 -11 5
-11 10 -1 6 -2 15 -3 22 -2 25 -26 19 -26 -7 0 -14 -4 -24 -9 -21 -5 4 -7 -4
-3 -16 3 -14 2 -19 -6 -14 -15 9 -16 43 -2 51 16 10 12 37 -7 51 -15 10 -21
10 -36 -4 -43 -39 -112 34 -72 78 36 40 105 13 105 -42 0 -10 2 -18 4 -18 2 0
12 -3 21 -7 15 -5 16 -1 11 23 -7 29 15 76 29 63 3 -4 -1 -14 -10 -22 -26 -26
-17 -42 10 -17 14 13 25 19 25 14 0 -5 5 -1 11 9 8 14 7 23 -7 38 -15 16 -15
19 -2 19 9 0 18 -9 21 -20 8 -29 27 -24 28 8 2 23 2 24 6 4 2 -12 9 -20 14
-17 5 4 6 17 3 31 -4 14 -2 24 5 24 6 0 11 -11 11 -24z m-145 -45 c-16 -15
-32 -24 -33 -19 -4 9 38 47 53 48 6 0 -3 -13 -20 -29z m215 -31 c14 -26 -4
-63 -28 -58 -21 4 -29 57 -10 69 20 13 26 11 38 -11z m80 -105 c0 -41 -2 -45
-25 -45 -18 0 -25 5 -25 19 0 16 35 71 46 71 2 0 4 -20 4 -45z m295 -113 c-2
-2 -7 20 -12 49 -6 49 -8 51 -14 24 -4 -16 -7 -22 -8 -13 0 9 -4 23 -7 31 -3
10 1 17 13 19 15 3 19 -6 25 -51 4 -30 6 -57 3 -59z m-524 58 c36 -20 13 -79
-25 -64 -18 7 -32 47 -21 63 8 14 21 14 46 1z m72 -87 c22 -24 47 -93 33 -93
-2 0 -26 9 -53 21 -52 22 -83 46 -83 63 0 6 5 3 11 -6 5 -10 21 -18 35 -18 14
0 38 -7 55 -15 29 -15 29 -15 17 4 -7 11 -27 28 -45 38 -37 19 -43 33 -15 33
10 0 30 -12 45 -27z m377 -68 c14 -9 13 -68 -2 -83 -17 -17 -64 -15 -82 4 -21
20 -20 50 1 78 14 19 23 22 45 15 15 -4 32 -10 38 -14z"/>
<path d="M1659 1647 c-6 -76 -3 -117 9 -117 12 0 17 31 13 85 -2 34 -20 59
-22 32z"/>
<path d="M1315 1345 l-30 -13 42 -1 c23 -1 53 -5 67 -11 35 -13 33 2 -3 23
-34 20 -37 20 -76 2z"/>
<path d="M1258 1073 c18 -2 45 -2 60 0 15 2 0 4 -33 4 -33 0 -45 -2 -27 -4z"/>
<path d="M1250 1010 c0 -5 7 -7 15 -4 8 4 15 1 15 -5 0 -6 -7 -11 -17 -11 -21
0 -8 -13 15 -15 14 -1 17 4 14 22 -4 22 -42 34 -42 13z"/>
<path d="M1623 973 c26 -2 67 -2 90 0 23 2 2 3 -48 3 -49 0 -68 -1 -42 -3z"/>
<path d="M1623 953 c26 -2 68 -2 95 0 26 2 4 3 -48 3 -52 0 -74 -1 -47 -3z"/>
<path d="M1130 1995 c-10 -12 -10 -15 0 -15 8 0 11 -3 7 -6 -3 -3 -16 1 -29
10 -12 9 -38 15 -58 15 l-35 -2 35 -7 35 -7 -40 -3 -40 -3 40 -7 40 -7 -50 -3
c-44 -3 -46 -4 -14 -7 26 -3 38 -10 42 -23 3 -11 1 -21 -4 -24 -5 -2 -4 -3 3
-2 6 1 17 20 23 42 8 28 13 34 17 22 4 -9 2 -19 -5 -22 -9 -3 -9 -5 0 -5 7 -1
10 -8 7 -18 -5 -15 -4 -16 5 -3 6 8 11 11 11 6 0 -5 6 -3 13 3 8 6 18 7 22 3
5 -4 5 -1 1 6 -6 10 -11 10 -21 2 -8 -7 -16 -7 -19 -2 -7 11 22 26 43 23 11
-2 10 1 -3 14 -22 23 -21 25 19 23 20 -1 32 -5 28 -11 -3 -6 -1 -7 6 -3 19 12
4 23 -33 24 -19 1 -39 -5 -46 -13z"/>
<path d="M1796 1984 c-3 -8 -2 -13 3 -10 5 3 20 -4 35 -15 14 -11 26 -16 26
-10 0 6 -5 11 -11 11 -8 0 -8 5 1 15 7 8 18 15 24 14 7 0 6 -2 -1 -6 -7 -2
-13 -9 -13 -15 0 -6 6 -6 15 2 8 7 12 16 10 20 -8 13 -45 7 -45 -7 0 -7 -7
-10 -15 -7 -8 4 -12 10 -9 15 3 5 1 9 -4 9 -6 0 -13 -7 -16 -16z"/>
<path d="M862 1980 c2 -18 -4 -21 -17 -10 -9 7 -18 10 -22 6 -3 -3 0 -6 8 -6
12 0 11 -2 -1 -10 -17 -11 20 -7 75 8 l30 9 -37 4 c-20 3 -36 2 -36 -1z"/>
<path d="M2070 1782 l5 -207 3 199 c1 110 -1 203 -5 207 -5 5 -6 -85 -3 -199z"/>
<path d="M804 1875 c0 -55 1 -76 3 -47 2 29 2 74 0 100 -2 26 -3 2 -3 -53z"/>
<path d="M1879 1968 c-1 -2 -3 -13 -4 -25 -2 -19 1 -21 16 -12 10 5 16 16 13
24 -5 13 -21 21 -25 13z"/>
<path d="M1957 1940 c4 -14 0 -20 -11 -20 -10 0 -13 -5 -9 -16 6 -15 8 -15 20
2 15 20 18 54 4 54 -5 0 -7 -9 -4 -20z"/>
<path d="M858 1943 c-16 -4 -18 -17 -16 -106 l2 -102 5 93 c6 87 8 95 31 107
24 14 13 17 -22 8z"/>
<path d="M823 1860 c0 -47 2 -66 4 -42 2 23 2 61 0 85 -2 23 -4 4 -4 -43z"/>
<path d="M876 1911 c-12 -13 -16 -32 -14 -57 3 -34 7 -40 33 -45 24 -5 27 -7
13 -13 -10 -5 -25 -6 -33 -2 -8 3 -15 1 -15 -4 0 -6 14 -10 30 -10 17 0 30 -4
30 -10 0 -5 -13 -10 -30 -10 l-29 0 6 -102 c3 -57 7 -105 9 -107 2 -2 4 41 4
96 l0 101 31 6 c28 5 30 8 25 39 -9 55 5 88 44 101 35 11 53 36 27 36 -9 0
-18 -6 -20 -12 -4 -10 -6 -10 -6 0 -1 6 -10 12 -21 12 -12 0 -17 -5 -14 -14 3
-8 1 -17 -4 -20 -5 -3 -12 3 -15 14 -6 25 -29 26 -51 1z"/>
<path d="M1026 1915 c-3 -8 -20 -24 -37 -34 l-32 -19 1 -174 c0 -103 -3 -161
-8 -143 -9 33 -11 32 -16 -7 -2 -19 2 -28 11 -28 9 0 12 -6 9 -15 -4 -8 -1
-15 5 -15 8 0 11 55 11 180 l0 179 40 41 c22 22 40 43 40 45 0 12 -18 4 -24
-10z"/>
<path d="M1085 1890 c4 -6 -5 -10 -20 -10 -14 0 -33 -9 -42 -19 -9 -11 -21
-17 -26 -14 -6 3 -7 1 -3 -5 4 -7 2 -12 -3 -12 -6 0 -11 -19 -11 -42 l1 -43
14 39 c7 21 20 43 27 47 7 5 9 9 4 9 -12 0 14 30 26 30 6 0 5 -7 -3 -16 -10
-13 -10 -17 2 -25 8 -5 21 -8 29 -8 8 0 4 5 -9 10 -19 7 -21 12 -11 24 6 8 20
17 31 20 19 6 17 25 -2 25 -6 0 -7 -4 -4 -10z"/>
<path d="M1023 1813 c-17 -6 -16 -30 1 -40 12 -7 12 -13 0 -41 -12 -30 -34
-37 -34 -11 0 6 5 7 10 4 6 -4 10 5 9 22 -1 17 -3 21 -6 11 -2 -10 -9 -18 -14
-18 -5 0 -9 -53 -9 -119 0 -111 1 -120 23 -135 16 -13 17 -16 4 -12 -10 3 -15
2 -12 -4 8 -13 35 -13 35 -1 0 6 -5 13 -10 16 -6 4 -7 11 -4 17 4 6 2 8 -3 5
-15 -9 -19 14 -20 113 -1 58 1 77 7 60 4 -14 9 -20 10 -15 1 6 3 15 4 20 1 6
10 27 19 47 21 46 21 48 0 48 -15 0 -16 2 -3 10 8 5 11 10 5 10 -5 0 -3 5 5
10 16 10 4 12 -17 3z"/>
<path d="M829 1607 c-2 -59 -1 -108 3 -110 4 -1 8 -16 10 -34 1 -17 6 -29 10
-27 5 3 5 11 1 17 -4 6 -10 68 -13 137 l-6 125 -5 -108z"/>
<path d="M938 1654 c-1 -31 0 -61 4 -67 4 -7 8 18 8 56 0 81 -7 88 -12 11z"/>
<path d="M1973 1696 c0 -6 12 -13 26 -14 14 -1 29 -8 34 -15 6 -9 8 -8 5 3 -6
19 -65 44 -65 26z"/>
<path d="M694 1530 c0 -96 2 -136 3 -87 2 48 2 126 0 175 -1 48 -3 8 -3 -88z"/>
<path d="M803 1635 c0 -33 2 -45 4 -27 2 18 2 45 0 60 -2 15 -4 0 -4 -33z"/>
<path d="M1994 1652 c-13 -22 -6 -52 12 -52 19 0 18 17 -3 29 -17 10 -17 10 0
11 17 0 23 15 9 24 -4 2 -13 -3 -18 -12z"/>
<path d="M892 1563 c-2 -82 0 -93 16 -94 14 0 14 -2 -3 -9 -20 -8 -20 -9 1 -9
20 -1 21 3 17 72 -6 98 -11 106 -14 22 l-3 -70 -6 90 -6 90 -2 -92z"/>
<path d="M2044 1605 c3 -22 6 -55 6 -72 0 -31 2 -33 35 -33 41 0 47 17 8 22
-23 3 -27 8 -30 48 -3 24 -9 51 -14 60 -7 11 -9 4 -5 -25z"/>
<path d="M953 1464 c18 -5 17 -8 -5 -31 l-23 -25 38 -33 c34 -30 55 -62 22
-35 -9 7 -15 8 -15 2 0 -5 6 -12 14 -15 9 -4 16 -24 19 -49 2 -32 4 -25 5 25
2 50 -1 67 -11 67 -8 0 -22 9 -32 20 -22 24 -9 27 16 4 16 -15 17 -14 12 5 -3
11 -10 19 -15 18 -6 -1 -13 4 -16 12 -3 9 0 11 8 6 8 -5 11 -1 8 11 -2 10 -12
20 -23 21 -17 2 -18 1 -2 -3z"/>
<path d="M886 1432 c-3 -5 9 -22 27 -38 17 -16 24 -19 14 -8 -10 12 -17 27
-15 34 4 15 -18 25 -26 12z"/>
<path d="M1945 1420 c-18 -8 -18 -9 -2 -9 17 -1 17 -2 2 -17 -9 -9 -13 -19
-10 -22 3 -4 10 0 15 8 8 12 10 12 16 -3 3 -9 10 -17 15 -17 14 0 11 38 -3 43
-10 4 -9 8 2 16 13 10 13 11 0 10 -8 0 -24 -4 -35 -9z"/>
<path d="M2006 1414 c-8 -22 -8 -26 4 -19 6 3 10 1 10 -4 0 -6 -6 -11 -12 -11
-10 0 -9 -3 1 -9 20 -13 5 -29 -23 -24 -27 6 -44 -12 -20 -21 8 -3 12 -2 9 4
-3 6 1 10 10 10 9 0 13 -4 10 -10 -4 -6 1 -7 12 -3 16 6 17 5 3 -13 -14 -18
-14 -18 3 -5 12 10 17 28 17 67 0 52 -12 71 -24 38z"/>
<path d="M1020 1372 c0 -7 5 -22 10 -33 7 -13 7 -19 0 -19 -6 0 -9 -27 -9 -67
l2 -68 6 58 c4 32 11 61 16 65 7 4 4 20 -7 42 -10 19 -18 29 -18 22z"/>
<path d="M900 1152 c0 -26 4 -41 10 -37 13 8 13 45 0 65 -7 11 -10 3 -10 -28z"/>
<path d="M954 1073 c1 -55 -2 -99 -6 -97 -4 3 -5 -3 -1 -12 4 -11 8 -13 11 -6
2 7 13 0 27 -16 13 -15 22 -29 19 -31 -2 -2 -12 7 -23 20 -11 13 -20 19 -21
13 0 -6 11 -21 25 -34 15 -14 25 -18 25 -11 0 10 3 11 13 3 9 -8 16 -6 24 7 8
13 20 17 37 14 15 -3 26 -1 26 6 0 11 -1 12 -36 16 -36 4 -42 13 -38 62 l3 48
-13 -40 c-7 -22 -11 -45 -8 -52 2 -6 -4 -10 -12 -9 -32 4 -45 41 -49 132 -4
88 -4 88 -3 -13z m94 -138 c3 -3 1 -10 -6 -17 -8 -8 -15 -8 -27 2 -8 7 -15 16
-15 21 0 8 39 4 48 -6z"/>
<path d="M1023 1120 c0 -36 2 -50 4 -32 2 17 2 47 0 65 -2 17 -4 3 -4 -33z"/>
<path d="M973 1115 c0 -33 2 -45 4 -27 2 18 2 45 0 60 -2 15 -4 0 -4 -33z"/>
<path d="M1043 1115 c0 -33 2 -45 4 -27 2 18 2 45 0 60 -2 15 -4 0 -4 -33z"/>
<path d="M1973 1111 c-29 -24 -33 -33 -32 -72 l2 -44 6 43 c7 38 41 93 41 65
0 -7 -4 -14 -9 -17 -4 -3 -11 -28 -15 -56 -5 -41 -11 -51 -29 -56 -13 -3 -29
-4 -36 -2 -8 2 -16 -3 -18 -11 -4 -9 0 -11 16 -6 11 3 33 7 48 7 27 1 28 3 30
56 2 31 7 60 12 65 6 6 8 -7 6 -34 -4 -43 -4 -43 4 -7 4 20 13 43 19 51 9 10
9 18 -1 30 -11 14 -15 13 -44 -12z"/>
<path d="M1000 1040 c-2 -54 -4 -59 -9 -30 -6 33 -7 34 -12 9 -3 -15 0 -34 7
-44 12 -16 13 -16 19 7 3 13 5 47 2 74 -3 47 -4 46 -7 -16z"/>
<path d="M1920 1079 c0 -5 -4 -7 -10 -4 -14 9 -12 -8 3 -24 10 -11 10 -14 0
-18 -7 -3 -13 -11 -13 -19 0 -9 -5 -12 -12 -8 -7 5 -8 3 -3 -6 6 -10 11 -9 21
4 11 16 13 16 17 -6 2 -13 5 3 6 35 0 31 -1 57 -4 57 -3 0 -5 -5 -5 -11z"/>
<path d="M853 1020 c0 -36 2 -50 4 -32 2 17 2 47 0 65 -2 17 -4 3 -4 -33z"/>
<path d="M1110 1013 c0 -36 2 -64 4 -62 13 12 34 94 26 97 -6 2 -10 10 -10 18
0 8 -4 14 -10 14 -6 0 -10 -29 -10 -67z"/>
<path d="M2015 1055 c-3 -14 -8 -37 -11 -52 -3 -18 -2 -24 4 -18 5 6 12 29 16
53 7 45 0 59 -9 17z"/>
<path d="M910 1015 c-2 -25 -4 -32 -7 -17 -2 12 -11 22 -19 22 -16 0 -19 -37
-4 -60 7 -11 9 -5 5 20 l-5 35 15 -39 c8 -21 20 -45 26 -52 6 -7 8 -18 4 -24
-5 -7 -11 -5 -20 7 -7 10 -12 20 -10 24 2 3 -2 6 -9 6 -8 0 8 -30 36 -69 l50
-69 26 38 c27 39 29 47 12 49 -5 1 -14 2 -19 3 -18 2 -65 84 -72 124 l-6 42
-3 -40z m62 -124 c16 -17 23 -33 18 -36 -6 -4 -8 -10 -5 -15 3 -5 1 -11 -5
-15 -5 -3 -10 1 -10 9 0 9 -11 23 -25 32 -19 13 -23 20 -14 30 8 10 7 19 -5
36 -9 12 -16 29 -16 38 1 8 9 1 18 -17 9 -17 29 -45 44 -62z"/>
<path d="M1928 943 c18 -2 45 -2 60 0 15 2 0 4 -33 4 -33 0 -45 -2 -27 -4z"/>
<path d="M1204 874 c109 -42 238 -126 329 -213 l67 -64 0 34 c0 31 -7 39 -85
94 -103 74 -220 138 -299 165 -99 33 -107 22 -12 -16z"/>
<path d="M1948 893 c23 -2 59 -2 80 0 20 2 1 4 -43 4 -44 0 -61 -2 -37 -4z"/>
<path d="M1821 871 c-8 -5 -27 -8 -42 -6 -16 2 -31 0 -34 -5 -4 -6 2 -7 12 -3
15 6 16 4 6 -9 -7 -8 -9 -19 -5 -23 4 -5 -1 -5 -11 -2 -11 4 -16 3 -12 -3 3
-6 1 -10 -6 -10 -6 0 0 -9 15 -21 14 -11 24 -25 21 -30 -4 -5 1 -6 9 -3 12 5
10 11 -12 31 -17 15 -21 23 -10 19 12 -3 16 0 13 14 -6 34 19 41 180 50 l120
6 -115 2 c-63 1 -121 -2 -129 -7z"/>
<path d="M1829 841 c8 -5 9 -10 3 -12 -6 -2 35 -5 91 -5 l102 -2 -75 9 c-41 4
-88 11 -105 14 -19 3 -25 2 -16 -4z"/>
<path d="M1180 725 c0 -2 21 -14 48 -26 26 -12 50 -23 55 -26 4 -2 7 -2 7 1 0
6 -47 32 -85 46 -14 5 -25 7 -25 5z"/>
<path d="M483 2060 c0 -41 2 -58 4 -37 2 20 2 54 0 75 -2 20 -4 3 -4 -38z"/>
<path d="M2040 637 c-52 -55 -77 -87 -55 -69 44 35 170 175 153 171 -2 0 -46
-46 -98 -102z"/>
<path d="M1844 459 c-10 -12 -45 -39 -77 -62 -41 -29 -54 -43 -45 -49 9 -5 5
-7 -11 -6 -16 2 -25 -3 -26 -14 -2 -10 -1 -18 2 -18 7 0 93 61 93 66 0 3 -5 2
-12 -2 -7 -4 -8 -3 -4 4 4 6 12 9 19 7 7 -3 32 13 57 35 25 22 36 37 25 33
-18 -6 -18 -5 -6 10 19 24 8 21 -15 -4z"/>
<path d="M1320 2861 c0 -11 -83 -38 -140 -45 -19 -2 -47 -9 -61 -14 -19 -8
-30 -7 -38 1 -8 8 -11 6 -12 -8 0 -19 -1 -19 -9 0 -7 17 -9 17 -9 3 -1 -10 -5
-18 -10 -18 -5 0 -12 8 -14 18 -3 10 -5 6 -6 -10 -1 -33 7 -34 80 -9 30 10 96
26 147 37 86 17 110 32 82 49 -5 3 -10 2 -10 -4z"/>
<path d="M1360 2855 c0 -12 13 -15 55 -15 43 0 55 3 55 15 0 15 -13 15 -67 -1
-14 -4 -23 -2 -23 5 0 6 -4 11 -10 11 -5 0 -10 -7 -10 -15z"/>
<path d="M1490 2862 c0 -14 26 -22 72 -22 51 0 42 13 -11 16 -22 1 -44 5 -50
9 -6 3 -11 2 -11 -3z"/>
<path d="M1532 2814 c13 -13 26 -15 65 -9 l48 8 -40 8 c-22 4 -51 8 -65 8 -22
1 -23 0 -8 -15z"/>
<path d="M1470 2806 c-19 -5 -38 -14 -41 -19 -4 -5 -16 -6 -28 -2 -20 6 -20 4
-10 -19 11 -24 12 -24 45 -8 19 8 34 20 34 25 0 5 11 6 25 3 25 -6 31 0 17 20
-5 7 -18 7 -42 0z"/>
<path d="M1710 2796 c14 -9 39 -15 55 -15 40 0 15 14 -40 23 -39 6 -39 6 -15
-8z"/>
<path d="M1305 2784 c-16 -8 -22 -12 -12 -9 25 7 47 -5 57 -29 8 -20 9 -19 9
5 1 39 -18 50 -54 33z"/>
<path d="M1615 2789 c-16 -5 -36 -7 -43 -4 -9 3 -12 -2 -10 -18 2 -15 19 -30
58 -49 62 -31 92 -42 103 -40 4 1 7 -2 7 -8 0 -5 5 -10 11 -10 5 0 7 5 4 10
-3 6 -1 10 5 10 7 0 15 -10 18 -22 6 -23 6 -23 13 2 7 24 7 24 8 3 1 -25 8
-29 171 -90 52 -19 107 -36 121 -38 14 -1 30 -5 36 -8 6 -4 53 -18 104 -32 93
-25 119 -23 119 10 0 19 -108 102 -187 144 -38 20 -26 5 27 -33 28 -20 48 -41
45 -46 -3 -5 -1 -11 4 -15 15 -9 1 -35 -19 -35 -28 0 -45 27 -30 45 11 13 8
20 -21 45 -43 37 -55 37 -74 0 -17 -32 -42 -40 -51 -15 -4 8 1 26 10 40 16 24
15 25 -16 40 -24 12 -28 12 -15 2 9 -8 17 -17 17 -21 0 -16 -29 -36 -44 -30
-19 7 -19 11 -5 53 9 26 15 30 33 25 36 -11 66 -35 66 -52 0 -15 2 -14 17 1
20 20 23 17 -52 49 -56 23 -61 24 -77 8 -10 -9 -18 -27 -18 -39 0 -14 -7 -25
-20 -28 -25 -7 -26 -23 -1 -23 19 0 165 -69 159 -75 -9 -9 -288 104 -288 117
0 8 54 -7 83 -23 14 -7 17 -5 17 12 0 30 18 59 38 59 9 1 -1 7 -23 15 -21 8
-41 12 -44 10 -2 -3 1 -5 7 -5 13 0 16 -38 4 -56 -4 -7 -15 -8 -29 -3 -19 7
-22 13 -17 41 9 47 15 50 68 32 50 -17 78 -12 30 6 -37 14 -112 22 -145 15
-21 -5 -28 -14 -33 -39 -6 -29 -10 -33 -31 -28 -21 4 -25 10 -25 38 0 20 5 34
13 35 14 1 -43 28 -58 28 -5 -1 -23 -5 -40 -10z m67 -34 c-2 -11 -5 -21 -7
-23 -5 -6 -55 21 -55 30 0 5 -5 6 -12 2 -7 -4 -8 -3 -4 5 5 7 24 11 44 9 31
-2 36 -6 34 -23z m142 -23 c8 -14 -23 -45 -39 -38 -13 4 -14 10 -5 26 11 20
35 27 44 12z m330 -130 c3 -5 3 -18 0 -29 -4 -15 -11 -19 -25 -16 -24 7 -31
17 -23 37 6 17 39 22 48 8z m136 -67 c18 -19 31 -37 29 -40 -3 -2 -23 13 -44
35 -22 22 -35 40 -29 40 6 0 25 -16 44 -35z"/>
<path d="M1093 2763 c-29 -9 -53 -19 -53 -24 0 -11 24 -12 34 -1 4 4 28 15 54
24 59 21 35 22 -35 1z"/>
<path d="M1135 2748 c-40 -14 -39 -12 -21 -47 9 -16 16 -32 16 -35 0 -3 -56
-26 -66 -26 -1 0 -5 13 -9 30 -4 16 -10 32 -15 35 -4 3 -29 -5 -55 -16 l-47
-21 21 -22 c12 -12 21 -27 21 -33 0 -15 -56 -37 -75 -29 -11 4 -15 1 -13 -11
2 -11 -5 -17 -23 -20 -19 -2 -29 3 -39 21 -11 22 -16 24 -34 14 -17 -9 -18
-12 -6 -16 26 -9 40 -35 27 -51 -10 -12 -9 -14 3 -9 8 3 48 16 88 29 39 12 72
27 72 32 0 4 5 5 10 2 6 -3 10 2 11 12 0 10 3 13 6 6 7 -18 23 -16 23 3 0 14
3 14 16 4 8 -8 14 -9 13 -4 -4 21 2 28 11 14 8 -13 10 -12 10 4 0 12 5 16 15
12 8 -3 15 0 15 7 0 8 4 7 10 -3 8 -12 10 -12 16 3 3 9 11 14 17 10 5 -3 15 0
21 8 6 8 22 15 36 16 37 3 130 36 130 46 0 5 -10 6 -22 3 -13 -4 -44 -13 -71
-20 l-47 -13 -6 38 c-7 41 -12 44 -59 27z m38 -38 c10 -16 16 -30 13 -31 -40
-8 -51 -2 -53 29 -3 41 17 42 40 2z m-139 -49 c14 -27 14 -29 -11 -40 -28 -13
-43 -3 -43 31 0 13 22 36 37 38 1 0 9 -13 17 -29z"/>
<path d="M1464 2737 c-3 -10 -11 -17 -18 -16 -18 3 -76 -22 -76 -32 0 -12 -45
-30 -85 -35 -16 -2 -36 -10 -43 -18 -28 -28 13 -24 87 9 41 18 67 35 60 38
-10 4 -9 6 4 6 9 1 25 5 35 10 9 5 27 13 39 17 17 7 20 13 13 24 -8 12 -10 12
-16 -3z"/>
<path d="M961 2709 c-35 -16 -62 -31 -59 -34 6 -7 116 43 123 56 8 12 10 13
-64 -22z"/>
<path d="M855 2656 c-19 -14 -19 -15 5 -10 24 5 24 5 6 -10 -10 -8 -24 -17
-30 -19 -6 -2 -8 -8 -4 -12 4 -4 14 -2 22 4 11 10 15 9 18 -4 2 -13 8 -10 26
14 22 30 22 31 3 31 -11 0 -21 5 -23 10 -2 7 -11 5 -23 -4z"/>
<path d="M2546 2570 c116 -126 199 -245 288 -414 83 -158 136 -377 136 -562 0
-59 3 -74 15 -74 10 0 13 8 10 28 -2 15 -6 70 -9 122 -9 156 -71 370 -147 507
-98 174 -212 329 -305 413 -29 26 -25 20 12 -20z"/>
<path d="M686 2540 c-21 -16 -41 -31 -43 -34 -3 -2 5 -9 16 -15 15 -8 33 -8
68 0 61 15 66 20 47 47 l-15 22 -45 -36 c-24 -20 -44 -32 -44 -26 0 5 17 24
38 41 47 39 30 40 -22 1z"/>
<path d="M308 2363 c-8 -10 -27 -38 -41 -63 -15 -25 -27 -39 -27 -33 0 7 9 27
20 45 23 38 26 54 6 36 -8 -7 -12 -16 -10 -20 2 -4 0 -9 -5 -12 -5 -3 -14 -20
-20 -36 -6 -18 -6 -28 -1 -25 16 10 12 -1 -39 -103 -55 -111 -83 -192 -106
-307 -9 -44 -20 -93 -25 -110 -15 -50 -21 -266 -10 -371 27 -266 123 -545 248
-719 64 -90 142 -185 151 -182 4 1 20 -13 36 -31 42 -50 161 -143 256 -200
160 -96 337 -161 511 -186 140 -21 229 -21 222 -1 -4 8 -11 12 -17 8 -24 -15
-263 15 -308 38 -9 5 -35 11 -58 14 -22 2 -49 9 -58 14 -10 5 -26 12 -36 15
-10 3 -16 9 -14 13 3 5 -6 9 -20 9 -13 1 -33 11 -44 23 -11 12 -24 22 -29 22
-19 3 -25 5 -47 17 -12 7 -28 11 -35 10 -7 -2 -12 2 -11 9 3 15 -33 36 -46 28
-5 -3 -16 1 -24 9 -8 8 -17 13 -20 10 -3 -3 -8 4 -12 16 -5 15 -13 20 -26 17
-10 -3 -22 0 -26 5 -4 7 -1 8 7 3 10 -6 12 -4 7 9 -6 14 -3 17 8 12 10 -3 26
4 41 19 30 30 26 29 52 6 26 -22 27 -29 5 -53 -13 -14 -14 -21 -5 -30 9 -9 12
-8 12 6 0 10 4 14 12 10 6 -4 8 -3 5 3 -4 6 0 16 8 23 13 11 14 8 12 -21 -2
-21 -8 -33 -16 -31 -7 1 -10 -2 -6 -8 17 -28 51 3 38 36 -3 9 0 20 8 24 11 7
9 10 -6 16 -10 4 -48 27 -83 51 -60 40 -66 42 -78 26 -7 -10 -14 -22 -14 -27
0 -6 6 -2 13 9 14 19 37 13 37 -9 0 -7 -6 -20 -13 -30 -13 -18 -14 -18 -32 0
-17 17 -18 17 -12 2 8 -22 -6 -24 -23 -3 -6 8 -15 14 -18 13 -15 -3 -42 15
-36 23 3 5 2 9 -3 8 -21 -4 -34 2 -27 13 4 7 3 8 -4 4 -6 -3 -16 2 -22 14 -6
11 -34 45 -63 75 -28 31 -53 60 -53 65 -1 6 -2 15 -3 20 -1 7 -7 7 -20 0 -17
-9 -25 -1 -65 63 -175 281 -268 653 -239 958 24 252 91 467 203 653 57 95 71
127 38 89z m76 -1784 c-2 -5 12 -31 32 -59 20 -27 33 -50 30 -50 -5 0 -86 106
-86 113 0 2 7 4 15 4 8 0 12 -4 9 -8z"/>
<path d="M2590 2305 c0 -12 61 -105 69 -105 3 0 11 -15 18 -32 6 -18 32 -82
57 -143 50 -121 81 -261 93 -420 6 -87 8 -94 13 -50 3 28 2 71 -2 97 -4 26
-10 78 -13 115 -4 37 -9 71 -12 76 -2 4 -13 40 -24 80 -24 88 -51 157 -62 157
-5 0 -5 5 -2 10 3 6 2 10 -3 10 -5 0 -15 19 -22 43 -16 47 -58 117 -71 117 -5
0 -9 6 -9 14 0 7 -7 19 -15 26 -8 7 -15 9 -15 5z"/>
<path d="M2600 2221 c6 -21 4 -33 -8 -44 -14 -15 -13 -15 5 -11 16 4 27 -5 51
-44 18 -27 32 -54 32 -60 0 -7 6 -12 13 -12 6 -1 -7 -12 -30 -26 -48 -29 -56
-54 -19 -54 34 0 56 10 56 25 0 7 6 15 12 17 10 4 6 19 -12 59 -22 49 -99 179
-106 179 -1 0 1 -13 6 -29z"/>
<path d="M341 2123 c-39 -79 -53 -115 -42 -108 6 3 11 -2 11 -13 0 -25 47 -47
66 -31 12 10 10 15 -15 30 -16 9 -31 21 -34 26 -4 5 8 36 24 67 18 34 27 62
22 67 -5 5 -19 -11 -32 -38z"/>
<path d="M142 2134 c-7 -7 -13 -17 -14 -21 -1 -5 -12 -33 -26 -63 -38 -87 -82
-274 -92 -400 -12 -142 -12 -130 0 -130 6 0 10 29 10 66 0 79 37 306 51 315 6
3 11 20 11 37 1 18 4 32 9 32 4 0 5 10 1 22 -3 12 -1 19 5 15 5 -3 20 23 32
58 13 35 28 66 34 68 6 2 7 6 2 9 -6 3 -16 0 -23 -8z"/>
<path d="M2619 2113 c-1 -5 -1 -11 0 -15 0 -5 -6 -8 -14 -8 -16 0 -21 -25 -7
-34 5 -3 18 -2 30 1 25 6 29 31 7 39 -8 4 -12 10 -9 15 3 5 3 9 0 9 -3 0 -7
-3 -7 -7z"/>
<path d="M2716 1991 c-3 -5 0 -24 8 -42 7 -19 16 -55 20 -80 7 -45 7 -45 -29
-56 -34 -11 -36 -10 -50 17 -19 37 -20 35 11 37 15 0 34 8 42 17 15 15 15 16
-1 16 -12 0 -16 4 -10 13 4 6 8 18 9 24 2 13 -9 8 -53 -23 -22 -16 -23 -15
-23 7 0 17 -3 20 -11 12 -14 -14 -2 -56 13 -47 8 5 9 1 5 -10 -10 -25 44 -128
63 -120 48 20 59 9 60 -53 0 -14 6 -23 15 -23 10 0 15 10 15 29 0 44 -19 136
-30 139 -5 2 -7 9 -4 16 6 16 -23 123 -36 131 -5 3 -11 1 -14 -4z"/>
<path d="M266 1937 c-8 -28 -13 -53 -11 -56 3 -2 6 -2 8 0 12 20 47 89 47 92
0 3 -6 7 -14 10 -11 4 -19 -8 -30 -46z"/>
<path d="M290 1916 c0 -8 -2 -20 -5 -28 -3 -8 7 -17 30 -24 19 -6 35 -8 35 -5
0 3 3 16 6 27 5 17 -1 24 -27 33 -40 14 -39 14 -39 -3z"/>
<path d="M2593 1878 c3 -13 9 -47 13 -75 3 -29 9 -51 13 -49 3 3 6 -75 5 -172
-1 -157 -4 -189 -28 -283 -43 -171 -101 -301 -204 -455 -74 -110 -140 -186
-154 -177 -6 3 -8 1 -5 -4 8 -13 -27 -46 -37 -36 -4 5 -6 3 -4 -2 4 -13 -91
-105 -108 -105 -6 0 -15 -7 -18 -15 -5 -14 -1 -13 25 2 17 10 37 26 43 36 6 9
17 17 24 17 22 0 172 158 228 240 28 41 75 118 104 170 29 52 56 97 61 100 15
10 47 117 74 244 20 98 25 157 27 282 2 152 1 162 -26 232 -27 70 -44 96 -33
50z"/>
<path d="M236 1852 c-12 -20 -37 -189 -43 -291 l-6 -114 24 6 c13 4 27 7 31 7
4 0 6 9 5 20 -2 25 -24 26 -31 3 -2 -10 -4 -4 -3 12 2 27 5 30 33 27 27 -3 32
0 36 23 4 19 2 23 -5 16 -6 -6 -20 -11 -30 -11 -17 0 -18 5 -12 38 6 35 6 36
-10 17 -16 -19 -16 -19 -11 14 3 18 6 42 6 52 0 14 7 19 29 19 17 0 31 6 35
16 9 24 8 25 -21 18 l-26 -7 6 54 c3 30 8 62 12 72 7 17 -9 25 -19 9z"/>
<path d="M374 1828 c-9 -18 -21 -73 -25 -121 -5 -50 -15 -97 -24 -110 -8 -12
-15 -38 -15 -59 0 -27 -4 -38 -15 -38 -14 0 -15 -16 -2 -50 10 -26 18 -136 11
-153 -3 -10 -12 -17 -20 -17 -8 0 -14 -3 -14 -8 0 -4 -10 -13 -21 -21 -22 -13
-22 -12 -15 38 6 42 4 51 -9 51 -8 0 -15 5 -15 12 0 6 -2 9 -5 6 -7 -7 15
-151 25 -168 14 -22 32 0 26 31 -5 28 -4 29 29 29 27 0 35 4 35 18 0 10 3 22
8 26 4 4 6 74 4 154 -2 104 0 143 7 132 6 -8 11 -42 11 -75 0 -93 26 -240 59
-341 39 -120 137 -314 200 -398 55 -72 64 -91 30 -60 -64 57 -183 277 -259
477 -19 48 -35 85 -37 83 -6 -6 27 -145 43 -183 9 -21 19 -46 20 -56 2 -10 15
-40 29 -67 32 -64 32 -72 -7 -89 -29 -13 -33 -13 -42 5 -6 10 -23 30 -38 45
-32 31 -36 49 -10 49 12 0 5 12 -26 40 -23 21 -42 44 -42 50 0 15 11 12 32 -7
10 -9 18 -11 18 -5 0 6 12 19 28 27 26 16 26 16 2 10 -14 -4 -32 -8 -40 -11
-10 -3 -18 6 -26 30 -12 41 -10 46 22 46 28 0 35 10 27 39 -5 18 -10 21 -32
16 -37 -9 -50 -23 -43 -47 3 -14 1 -19 -6 -14 -18 11 -15 -7 14 -92 32 -96 55
-143 67 -135 6 4 7 1 2 -6 -4 -8 1 -18 13 -27 13 -9 18 -21 15 -34 -3 -11 -9
-17 -14 -14 -5 3 -10 -2 -10 -10 -3 -29 -4 -34 -11 -42 -11 -11 -10 -34 2 -34
5 0 7 7 3 16 -4 12 -1 15 12 13 27 -6 31 -29 6 -36 -27 -7 -27 -19 -1 -19 11
0 20 4 20 8 0 5 10 4 21 -3 21 -11 21 -10 5 12 -23 33 -20 42 9 23 14 -9 23
-20 20 -24 -2 -4 4 -15 15 -25 11 -10 20 -14 20 -9 0 5 5 2 10 -6 5 -8 10 -10
10 -5 0 6 -11 27 -25 47 -29 43 -32 63 -9 72 9 4 15 9 12 11 -10 10 -38 -7
-38 -22 0 -12 -3 -13 -14 -4 -10 9 -15 8 -20 -4 -9 -24 -23 -18 -23 10 0 34
22 52 36 28 10 -17 10 -17 11 0 0 10 11 22 25 27 14 5 28 17 31 25 7 18 34 20
34 3 0 -7 3 -23 6 -35 5 -17 2 -23 -10 -23 -10 0 -16 -8 -16 -22 l1 -23 19 23
c11 13 24 21 30 17 5 -3 30 -35 55 -69 42 -59 56 -72 78 -74 4 -1 48 -38 96
-84 49 -46 112 -95 141 -110 67 -35 77 -30 14 7 -25 15 -54 33 -63 41 -9 7
-37 30 -63 52 -179 145 -347 444 -405 722 -25 120 -26 435 -1 500 21 54 16 65
-8 18z"/>
<path d="M260 1801 c0 -5 -3 -16 -6 -25 -8 -22 39 -22 61 0 13 14 14 19 3 25
-18 12 -58 11 -58 0z"/>
<path d="M317 1728 c-8 -12 -17 -35 -21 -49 -5 -22 -11 -26 -36 -24 -20 2 -30
-2 -30 -11 0 -8 6 -11 16 -7 14 5 16 2 10 -20 -5 -20 -3 -27 8 -27 21 0 45 27
51 58 3 15 10 43 15 61 11 43 6 50 -13 19z"/>
<path d="M2674 1684 c13 -74 16 -77 81 -63 16 3 21 -2 23 -28 3 -32 2 -33 -36
-33 -35 0 -39 -2 -35 -20 4 -16 14 -20 45 -20 33 0 39 -3 34 -16 -3 -9 -6 -22
-6 -30 0 -9 -11 -14 -35 -14 -19 0 -35 -4 -35 -10 0 -5 14 -10 30 -10 23 0 30
-4 30 -20 0 -16 -7 -20 -36 -20 -24 0 -34 -4 -31 -12 2 -7 16 -12 31 -11 21 1
26 -3 26 -21 0 -13 -7 -29 -15 -36 -21 -17 -19 -30 5 -30 20 0 20 -1 4 -25 -9
-14 -14 -36 -12 -50 3 -14 1 -25 -3 -25 -5 0 -9 -9 -9 -19 0 -20 -12 -21 -61
-6 -10 4 -19 2 -19 -3 0 -17 80 -26 96 -11 13 14 25 64 29 129 1 19 3 43 4 53
0 10 6 15 11 12 6 -3 10 1 10 9 0 8 -4 18 -10 21 -5 3 -10 12 -10 18 0 8 3 8
9 -1 6 -10 10 -7 15 14 5 17 3 30 -4 34 -9 6 -9 9 -1 14 7 5 11 42 10 106 -1
109 -5 115 -76 111 -27 -2 -33 1 -33 17 0 11 -8 30 -19 43 -18 23 -18 22 -7
-47z"/>
<path d="M159 1500 c-1 -14 -1 -28 -1 -31 14 -117 14 -121 -9 -145 -12 -13
-17 -24 -11 -24 7 0 12 5 12 11 0 6 8 9 19 6 17 -4 18 1 13 82 -5 90 -19 151
-23 101z"/>
<path d="M2672 1494 c2 -15 9 -29 16 -32 10 -3 13 4 10 24 -2 15 -9 29 -16 32
-10 3 -13 -4 -10 -24z"/>
<path d="M5 1409 c16 -257 85 -479 215 -695 56 -92 79 -116 31 -31 -141 247
-215 479 -228 714 -3 57 -10 106 -15 109 -6 4 -7 -34 -3 -97z"/>
<path d="M2894 1493 c-6 -2 -9 -26 -6 -62 2 -33 -3 -92 -13 -137 -9 -43 -19
-90 -21 -104 -3 -14 -9 -40 -14 -57 -4 -18 -5 -33 -1 -33 10 0 35 92 56 202
17 94 17 197 -1 191z"/>
<path d="M2970 1492 c0 -41 -26 -197 -46 -277 -28 -116 -95 -318 -107 -323 -4
-2 -4 -9 -1 -14 5 -7 2 -8 -5 -3 -7 4 -11 16 -8 26 10 36 -8 18 -33 -33 -33
-69 -33 -68 -22 -68 5 0 17 19 26 43 13 33 19 39 26 27 6 -9 6 -16 0 -18 -6
-2 -10 -8 -10 -13 0 -6 5 -7 12 -3 7 4 8 3 4 -5 -4 -6 -12 -8 -18 -5 -6 4 -9
1 -6 -7 2 -7 -4 -22 -14 -33 -10 -11 -18 -28 -18 -38 0 -10 -5 -18 -11 -18 -5
0 -7 -6 -3 -12 4 -7 3 -10 -1 -5 -5 4 -21 -14 -36 -40 -16 -27 -31 -46 -34
-45 -4 2 -10 0 -13 -4 -4 -4 -1 -4 6 0 24 14 12 -12 -22 -46 -18 -18 -45 -51
-60 -72 -14 -21 -26 -36 -26 -33 0 3 -24 -19 -52 -50 -29 -31 -97 -89 -151
-130 -93 -69 -128 -88 -111 -61 4 7 3 8 -5 4 -6 -4 -9 -11 -6 -16 3 -5 -8 -16
-24 -25 -36 -18 -45 -19 -35 -3 4 7 3 8 -5 4 -6 -4 -9 -12 -5 -17 5 -9 -78
-50 -181 -90 -54 -21 -79 -24 -71 -10 4 5 -16 2 -44 -7 -32 -10 -46 -19 -38
-24 10 -6 8 -8 -4 -8 -9 0 -19 6 -21 13 -3 7 -6 4 -6 -7 -1 -16 4 -17 37 -11
189 35 454 165 620 303 78 65 237 237 236 256 -1 9 4 12 14 8 11 -4 14 -1 9
12 -5 11 -3 15 5 10 8 -5 9 -2 5 10 -4 9 -3 15 2 12 5 -3 14 1 21 9 11 14 7
19 -12 16 -4 0 -4 7 -1 16 4 11 8 13 11 5 2 -7 8 -12 12 -12 15 0 61 86 55
101 -3 8 2 23 10 34 15 19 16 19 5 -3 -7 -13 -9 -26 -6 -29 8 -8 78 146 80
174 0 11 5 19 10 15 5 -3 7 5 4 16 -4 14 -2 20 5 15 6 -4 8 2 5 15 -4 12 -3
20 1 17 12 -7 33 73 26 98 -5 17 -4 19 4 7 9 -13 11 -12 12 5 0 11 2 29 4 40
9 44 24 184 28 248 2 50 0 67 -10 67 -7 0 -13 -3 -13 -8z"/>
<path d="M2820 1438 c0 -29 -9 -95 -20 -147 -23 -110 -23 -104 -10 -96 6 3 10
22 10 41 0 19 5 34 11 34 5 0 7 5 4 10 -3 6 -1 10 5 10 7 0 9 7 6 16 -3 9 -3
20 0 26 3 5 8 33 10 61 2 29 5 61 7 71 1 10 -4 21 -10 23 -9 3 -13 -10 -13
-49z"/>
<path d="M202 1431 c-17 -10 -5 -61 14 -61 8 0 14 4 14 9 0 5 11 11 25 13 36
4 36 22 0 26 -16 2 -32 8 -35 12 -3 5 -11 5 -18 1z"/>
<path d="M2655 1373 c-4 -26 -9 -59 -10 -73 -2 -24 -20 -96 -32 -126 -3 -8 1
-14 10 -14 16 0 44 109 33 135 -3 9 -2 13 4 10 6 -3 10 -15 10 -26 0 -27 36
-25 44 4 9 34 8 37 -20 37 -24 0 -25 2 -18 33 10 48 10 59 -2 64 -7 2 -15 -15
-19 -44z"/>
<path d="M175 1276 c-19 -15 -19 -15 -1 -16 11 0 17 -3 14 -6 -3 -3 -2 -20 3
-38 7 -25 5 -41 -6 -62 -13 -25 -13 -30 2 -46 9 -10 22 -18 29 -18 7 0 19 -21
27 -47 12 -40 12 -50 0 -59 -19 -16 -16 -23 7 -17 11 3 20 11 20 17 0 27 -47
150 -58 152 -7 1 -8 0 -2 -3 15 -7 12 -23 -5 -23 -8 0 -15 9 -15 20 0 12 7 20
16 20 12 0 14 6 8 33 -4 17 -10 49 -13 70 -6 36 -7 37 -26 23z"/>
<path d="M2766 1154 c-10 -38 -74 -200 -98 -249 -11 -22 -45 -77 -74 -122 -35
-54 -49 -83 -39 -83 8 0 26 20 41 45 14 25 31 45 37 45 6 0 8 3 4 6 -7 7 62
145 78 156 5 4 6 8 1 8 -5 0 -4 6 1 13 6 6 16 30 23 52 7 22 19 50 27 63 8 13
12 29 10 37 -3 7 0 18 6 24 8 8 8 14 0 22 -7 7 -12 2 -17 -17z"/>
<path d="M2703 1113 c-3 -10 -15 -28 -26 -40 -11 -13 -17 -23 -13 -23 5 0 4
-6 -1 -12 -6 -7 -13 -30 -17 -50 -6 -30 -4 -38 8 -38 23 0 42 40 25 51 -11 8
-9 13 9 28 19 16 52 77 52 96 0 13 -31 3 -37 -12z"/>
<path d="M2582 1082 c-7 -22 -23 -51 -37 -66 -14 -15 -25 -38 -25 -51 0 -13
-4 -27 -10 -30 -5 -3 -8 -16 -6 -28 3 -12 5 -25 5 -29 1 -5 7 -8 15 -8 8 0 16
-7 20 -15 8 -22 7 -30 -3 -30 -17 0 -22 -13 -7 -18 9 -4 24 5 38 22 13 15 31
30 40 34 9 3 24 20 33 37 16 30 16 31 -4 21 -11 -6 -28 -22 -39 -35 -19 -24
-20 -25 -55 -9 l-36 17 20 37 c22 45 24 52 7 44 -7 -4 -6 -1 2 7 16 14 70 113
70 129 0 24 -18 5 -28 -29z"/>
<path d="M2836 1038 c-39 -116 -39 -116 -23 -88 8 14 20 44 27 67 7 23 16 41
19 39 3 -2 7 11 8 30 1 19 1 34 -1 34 -1 0 -14 -37 -30 -82z"/>
<path d="M2607 1069 c-7 -27 -1 -39 20 -39 9 0 13 6 9 15 -3 8 2 19 12 24 9 6
12 11 5 11 -6 0 -18 3 -26 6 -9 3 -16 -3 -20 -17z"/>
<path d="M2822 1063 c-5 -15 -13 -37 -18 -47 -5 -13 -4 -17 4 -12 11 7 35 77
28 83 -2 2 -8 -9 -14 -24z"/>
<path d="M2570 975 c0 -8 0 -18 -1 -22 0 -4 9 -10 20 -15 26 -9 52 29 30 43
-22 14 -49 10 -49 -6z"/>
<path d="M376 967 c-10 -8 -15 -19 -11 -30 6 -14 11 -15 28 -5 29 14 28 13 21
32 -7 19 -15 20 -38 3z"/>
<path d="M270 941 c0 -11 -4 -21 -10 -21 -5 0 -9 4 -7 9 1 5 -1 9 -5 10 -10 1
-8 -2 8 -20 12 -12 16 -11 29 2 14 14 14 17 1 29 -14 11 -16 9 -16 -9z"/>
<path d="M2418 826 c-70 -107 -206 -261 -252 -285 -28 -15 -35 -31 -13 -31 7
0 21 10 32 23 17 19 20 20 23 5 2 -10 8 -18 14 -18 6 0 8 -9 5 -20 -3 -13 0
-20 8 -20 25 0 27 21 5 45 l-22 24 48 58 c60 71 83 94 88 91 2 -2 8 1 13 6 5
5 3 6 -4 2 -14 -8 -18 10 -4 18 15 9 135 196 129 201 -2 1 -33 -43 -70 -99z"/>
<path d="M2441 815 c-13 -20 -22 -38 -19 -41 3 -3 14 9 25 27 12 18 23 27 27
21 8 -13 36 -5 36 10 0 6 -9 8 -20 5 -10 -3 -20 -1 -22 4 -2 5 -14 -7 -27 -26z"/>
<path d="M2549 773 c-66 -69 -94 -109 -81 -117 5 -3 14 0 19 7 33 42 123 167
120 167 -2 0 -28 -26 -58 -57z"/>
<path d="M2699 732 c-20 -31 -35 -59 -33 -61 5 -5 28 25 62 81 37 61 11 43
-29 -20z"/>
<path d="M531 707 c-9 -15 -10 -18 -1 -10 7 6 19 9 27 6 11 -5 11 -9 -3 -24
-15 -16 -15 -19 -2 -19 15 0 46 28 37 33 -2 1 -13 10 -24 19 -20 16 -21 16
-34 -5z"/>
<path d="M2406 718 c16 -28 27 -38 36 -32 5 3 2 14 -8 25 -19 21 -39 26 -28 7z"/>
<path d="M2476 626 c-27 -32 -46 -59 -43 -63 3 -3 21 12 39 33 18 20 39 43 46
51 8 7 12 18 10 24 -2 6 -25 -14 -52 -45z"/>
<path d="M708 613 c24 -29 47 -53 50 -53 4 -1 27 -19 50 -40 l44 -39 -21 -27
c-25 -32 -27 -44 -6 -44 8 0 15 5 15 11 0 5 3 8 8 5 4 -2 12 6 18 19 10 21 3
30 -95 121 -82 77 -96 87 -63 47z"/>
<path d="M2371 619 l-23 -19 23 -19 c22 -18 23 -18 40 3 10 11 15 23 13 26 -3
2 -9 -2 -13 -9 -5 -7 -14 -10 -20 -6 -9 5 -9 10 0 21 19 23 7 24 -20 3z"/>
<path d="M2290 606 c0 -16 28 -42 36 -33 8 7 -14 47 -26 47 -6 0 -10 -6 -10
-14z"/>
<path d="M595 540 c63 -64 161 -137 171 -128 3 3 -12 19 -33 34 -21 16 -50 41
-65 57 -14 16 -30 29 -35 29 -15 0 -30 13 -48 41 -9 15 -25 27 -33 27 -10 0 6
-23 43 -60z"/>
<path d="M2604 591 c5 -8 0 -14 -13 -18 -12 -3 -21 -12 -21 -19 0 -8 -4 -14
-9 -14 -5 0 -16 -11 -25 -25 -17 -25 -16 -25 4 -13 11 7 20 16 20 19 0 4 14
20 31 37 22 21 27 32 18 37 -8 6 -10 4 -5 -4z"/>
<path d="M2345 546 c-11 -6 -50 -38 -88 -72 -65 -58 -230 -154 -265 -154 -11
0 -13 -3 -5 -11 23 -23 278 128 359 212 30 32 30 43 -1 25z"/>
<path d="M2365 513 c-144 -128 -306 -216 -515 -280 -13 -3 -13 -5 0 -13 10 -6
20 -4 31 6 27 24 49 18 49 -16 0 -20 5 -30 15 -30 13 0 14 4 5 20 -6 11 -8 25
-5 30 7 11 188 100 213 105 9 2 19 4 22 5 3 1 8 2 12 1 4 0 10 8 13 19 4 11
10 18 14 16 4 -3 14 4 21 15 8 10 19 19 25 19 6 0 25 14 43 31 18 18 36 28 43
23 7 -4 9 -3 5 4 -3 6 12 26 35 45 22 19 37 37 32 40 -4 3 -30 -15 -58 -40z"/>
<path d="M723 527 l-23 -22 22 -14 c19 -12 24 -11 41 10 17 21 18 24 3 27 -9
2 -14 8 -11 13 11 17 -10 8 -32 -14z"/>
<path d="M2097 460 c3 -12 14 -20 26 -20 19 0 20 1 2 20 -10 11 -21 20 -26 20
-4 0 -5 -9 -2 -20z"/>
<path d="M2125 422 c-16 -8 -25 -17 -19 -19 16 -5 64 15 64 27 0 13 -8 12 -45
-8z"/>
<path d="M2425 421 c2 -13 -1 -21 -9 -21 -7 0 -33 -16 -59 -36 -27 -21 -51
-33 -58 -28 -7 4 -9 3 -6 -3 9 -14 -19 -37 -34 -27 -8 4 -9 3 -5 -4 10 -16
-66 -64 -90 -56 -14 4 -16 3 -5 -4 11 -8 8 -13 -17 -26 -40 -21 -59 -21 -42
-1 21 26 3 17 -27 -13 -33 -34 -89 -53 -80 -27 7 17 -10 71 -19 62 -3 -3 0
-15 6 -27 10 -18 8 -24 -7 -36 -10 -7 -13 -14 -8 -14 16 0 -44 -29 -105 -51
-30 -10 -62 -17 -71 -14 -9 3 -28 -4 -43 -16 l-27 -21 -6 21 c-3 11 -12 21
-20 21 -13 0 -13 -3 -3 -15 13 -16 11 -17 -30 -20 -14 -1 -51 -8 -83 -14 -45
-10 -61 -10 -72 -1 -12 10 -15 9 -15 -4 0 -12 10 -16 43 -16 61 0 220 26 304
50 40 11 79 17 88 14 16 -6 180 55 171 64 -3 3 -32 -7 -63 -21 -32 -14 -71
-28 -88 -32 -20 -4 -15 1 17 14 108 46 236 111 287 145 59 40 70 44 50 19 -11
-16 -11 -16 1 -5 8 7 15 18 15 25 0 7 35 35 77 63 84 55 102 69 75 58 -9 -3
-24 -1 -32 6 -12 10 -13 8 -10 -9z"/>
<path d="M922 405 c-20 -17 -36 -23 -49 -18 -25 9 -15 1 30 -25 21 -12 35 -16
30 -10 -14 24 -12 41 10 59 12 10 19 18 15 19 -3 0 -20 -11 -36 -25z"/>
<path d="M784 392 c10 -16 95 -57 102 -49 4 4 -15 17 -42 29 -27 12 -53 24
-58 26 -5 3 -6 0 -2 -6z"/>
<path d="M986 325 c-4 -11 -13 -14 -32 -9 -19 5 -25 4 -20 -5 11 -17 41 -13
61 9 10 11 13 20 8 20 -6 0 -13 -7 -17 -15z"/>
<path d="M874 312 c14 -17 16 -25 7 -35 -13 -17 -5 -28 16 -20 12 5 12 7 1 14
-10 7 -9 9 5 9 27 0 20 18 -15 36 l-33 17 19 -21z"/>
<path d="M1898 283 c-53 -22 -47 -35 7 -16 25 8 45 19 45 24 0 12 -7 10 -52
-8z"/>
<path d="M981 281 c-10 -6 -8 -10 5 -15 13 -5 15 -9 6 -18 -18 -18 -14 -34 7
-34 14 0 17 4 11 11 -6 7 -6 15 0 21 13 13 -13 45 -29 35z"/>
<path d="M1028 223 c-2 -21 -8 -27 -23 -25 -17 2 -17 1 -5 -8 11 -7 20 -4 34
13 18 21 74 32 77 15 1 -4 2 -12 3 -17 2 -19 12 -19 24 0 11 17 9 21 -12 29
-13 5 -40 12 -59 15 -33 7 -36 5 -39 -22z"/>
<path d="M1751 221 c-14 -4 -26 -12 -29 -19 -4 -14 31 -8 83 14 l30 12 -30 0
c-16 0 -41 -3 -54 -7z"/>
<path d="M1170 210 c0 -5 17 -10 38 -9 30 0 33 2 17 9 -28 12 -55 12 -55 0z"/>
<path d="M823 166 c21 -16 211 -92 252 -101 17 -3 -10 10 -60 28 -49 19 -117
46 -150 61 -33 14 -52 20 -42 12z"/>
<path d="M1734 162 c-15 -10 -14 -40 2 -38 16 2 44 26 44 37 0 11 -31 12 -46
1z"/>
<path d="M1152 45 c8 -8 48 -16 108 -20 55 -4 54 -4 -15 10 -77 15 -101 18
-93 10z"/>
<path d="M1690 31 c0 -5 -17 -12 -37 -14 -21 -2 -6 -3 32 -1 39 2 76 4 83 4 7
0 11 4 8 8 -7 12 -86 15 -86 3z"/>
<path d="M1348 13 c18 -2 45 -2 60 0 15 2 0 4 -33 4 -33 0 -45 -2 -27 -4z"/>
</g>
</svg>
